<?xml version="1.0" encoding="utf-8"?>
<!-- Generator: Adobe Illustrator 22.0.0, SVG Export Plug-In . SVG Version: 6.00 Build 0)  -->
<svg version="1.0" id="Roadmap" xmlns="http://www.w3.org/2000/svg" xmlns:xlink="http://www.w3.org/1999/xlink" x="0px" y="0px"
	 viewBox="0 0 64.1 273" enable-background="new 0 0 64.1 273" xml:space="preserve">
<g>
	<g>
		
			<linearGradient id="SVGID_1_" gradientUnits="userSpaceOnUse" x1="-157.86" y1="-12.7132" x2="-157.6921" y2="-12.7132" gradientTransform="matrix(6.123234e-17 1 -1 6.123234e-17 5.0048 327.5051)">
			<stop  offset="0" style="stop-color:#570D60"/>
			<stop  offset="1" style="stop-color:#851775"/>
		</linearGradient>
		<path fill="url(#SVGID_1_)" d="M17.6,169.8c0.1,0,0.1,0,0.2,0c-0.1-0.1-0.1-0.1-0.2-0.2C17.6,169.7,17.6,169.7,17.6,169.8z"/>
		
			<linearGradient id="SVGID_2_" gradientUnits="userSpaceOnUse" x1="-161.9149" y1="-27.4895" x2="-144.9819" y2="-27.4895" gradientTransform="matrix(6.123234e-17 1 -1 6.123234e-17 5.0048 327.5051)">
			<stop  offset="0" style="stop-color:#570D60"/>
			<stop  offset="1" style="stop-color:#851775"/>
		</linearGradient>
		<path fill="url(#SVGID_2_)" d="M17.7,169.6c0.1,0.1,0.1,0.1,0.2,0.2c10.6,1.1,20.1,5.8,27.4,12.7c0.6-1.3,1.6-2.3,2.9-2.9
			c-8.3-7.9-19.2-13.1-31.3-14c0.6,0.8,1,1.8,1,2.9C17.8,168.9,17.7,169.3,17.7,169.6z"/>
		
			<linearGradient id="SVGID_3_" gradientUnits="userSpaceOnUse" x1="-157.7106" y1="-24.996" x2="-139.9446" y2="-24.996" gradientTransform="matrix(6.123234e-17 1 -1 6.123234e-17 5.0048 327.5051)">
			<stop  offset="0" style="stop-color:#570D60"/>
			<stop  offset="1" style="stop-color:#851775"/>
		</linearGradient>
		<path fill="url(#SVGID_3_)" d="M45,187.6c-0.2-0.7-0.4-1.4-0.4-2.2c0-0.7,0.1-1.4,0.3-2C34.4,182,25,177,17.8,169.8
			c-0.1,0-0.1,0-0.2,0c-0.4,1.4-1.3,2.5-2.6,3C22.9,180.8,33.3,186.1,45,187.6z"/>
		
			<linearGradient id="SVGID_4_" gradientUnits="userSpaceOnUse" x1="-138.2363" y1="-33.4863" x2="-59.1045" y2="-33.4863" gradientTransform="matrix(6.123234e-17 1 -1 6.123234e-17 5.0048 327.5051)">
			<stop  offset="0" style="stop-color:#570D60"/>
			<stop  offset="1" style="stop-color:#851775"/>
		</linearGradient>
		<path fill="url(#SVGID_4_)" d="M64.1,216.9c0-10.2-3-19.7-8-27.6c-0.8,1.1-2,1.9-3.4,2.3c4.6,7.3,7.3,16,7.3,25.3
			c0,26.1-21.1,47.3-47.1,47.4c0.3,0.6,0.4,1.3,0.4,1.9c0,0.8-0.2,1.5-0.5,2.2C41.1,268.4,64.1,245.3,64.1,216.9z"/>
	</g>
	
		<linearGradient id="SVGID_5_" gradientUnits="userSpaceOnUse" x1="-322.9675" y1="-33.4795" x2="-242.5022" y2="-33.4795" gradientTransform="matrix(6.123234e-17 1 -1 6.123234e-17 5.0048 327.5051)">
		<stop  offset="0" style="stop-color:#570D60"/>
		<stop  offset="1" style="stop-color:#851775"/>
	</linearGradient>
	<path fill="url(#SVGID_5_)" d="M55.2,85c5.6-8.3,8.9-18.2,8.9-29c0-28.4-23-51.5-51.3-51.5v4.1C38.9,8.7,60,29.9,60,56
		c0,9.7-2.9,18.6-7.9,26.1C53.5,82.7,54.5,83.7,55.2,85z"/>
	<g>
		
			<linearGradient id="SVGID_6_" gradientUnits="userSpaceOnUse" x1="-220.1913" y1="-1.3406" x2="-161.8281" y2="-1.3406" gradientTransform="matrix(6.123234e-17 1 -1 6.123234e-17 5.0048 327.5051)">
			<stop  offset="0" style="stop-color:#570D60"/>
			<stop  offset="1" style="stop-color:#851775"/>
		</linearGradient>
		<path fill="url(#SVGID_6_)" d="M9.1,165.7c0.8-1.1,2.1-1.9,3.6-2c-5.4-7.7-8.6-17.1-8.6-27.2c0-10,3.1-19.3,8.4-26.9
			c-1.5-0.2-2.7-1-3.4-2.2c-5.7,8.3-9,18.3-9,29.2C0,147.3,3.4,157.4,9.1,165.7z"/>
		
			<linearGradient id="SVGID_7_" gradientUnits="userSpaceOnUse" x1="-241.9426" y1="-24.2311" x2="-224.3646" y2="-24.2311" gradientTransform="matrix(6.123234e-17 1 -1 6.123234e-17 5.0048 327.5051)">
			<stop  offset="0" style="stop-color:#570D60"/>
			<stop  offset="1" style="stop-color:#851775"/>
		</linearGradient>
		<path fill="url(#SVGID_7_)" d="M17,101.9c0.3,0.4,0.5,0.8,0.7,1.2c0.1,0,0.1,0,0.2,0c6.8-6.9,15.7-11.7,25.6-13.4
			c-0.2-0.6-0.2-1.1-0.2-1.7c0-0.9,0.2-1.7,0.5-2.5c-11.2,1.7-21.2,7-28.8,14.7C15.7,100.6,16.4,101.2,17,101.9z"/>
		
			<linearGradient id="SVGID_8_" gradientUnits="userSpaceOnUse" x1="-236.0455" y1="-27.2734" x2="-220.1873" y2="-27.2734" gradientTransform="matrix(6.123234e-17 1 -1 6.123234e-17 5.0048 327.5051)">
			<stop  offset="0" style="stop-color:#570D60"/>
			<stop  offset="1" style="stop-color:#851775"/>
		</linearGradient>
		<path fill="url(#SVGID_8_)" d="M17.8,105.9c0,0,0,0.1,0,0.1c-0.1,0.4-0.3,0.8-0.5,1.2c11.5-1,22-5.8,30.1-13.2
			c-1.3-0.5-2.5-1.4-3.2-2.6c-7.2,6.4-16.3,10.6-26.3,11.7c0,0-0.1,0.1-0.1,0.1c0.2,0.5,0.3,1,0.3,1.5
			C17.9,105.2,17.9,105.6,17.8,105.9z"/>
	</g>
</g>
<g id="_Ball_5_">
	<defs>
		<path id="SVGID_9_" d="M56.9,185.4c0,3.3-2.7,5.9-5.9,5.9c-3.3,0-5.9-2.7-5.9-5.9c0-3.3,2.7-5.9,5.9-5.9
			C54.2,179.4,56.9,182.1,56.9,185.4L56.9,185.4z"/>
	</defs>
	
		<radialGradient id="SVGID_10_" cx="-142.1298" cy="-45.9498" r="5.9415" gradientTransform="matrix(6.123234e-17 1 -1 6.123234e-17 5.0048 327.5051)" gradientUnits="userSpaceOnUse">
		<stop  offset="0" style="stop-color:#CC33AE"/>
		<stop  offset="1" style="stop-color:#9A1A81"/>
	</radialGradient>
	<use xlink:href="#SVGID_9_"  overflow="visible" fill-rule="evenodd" clip-rule="evenodd" fill="url(#SVGID_10_)"/>
	<clipPath id="SVGID_11_">
		<use xlink:href="#SVGID_9_"  overflow="visible"/>
	</clipPath>
	
		<use xlink:href="#SVGID_9_"  overflow="visible" fill-rule="evenodd" clip-rule="evenodd" fill="none" stroke="#570D60" stroke-width="2" stroke-miterlimit="10"/>
</g>
<g id="_Ball_4_">
	<defs>
		<path id="SVGID_12_" d="M12.8,266.4c0,3.1-2.5,5.6-5.6,5.6c-3.1,0-5.6-2.5-5.6-5.6c0-3.1,2.5-5.6,5.6-5.6
			C10.3,260.8,12.8,263.3,12.8,266.4L12.8,266.4z"/>
	</defs>
	<clipPath id="SVGID_13_">
		<use xlink:href="#SVGID_12_"  overflow="visible"/>
	</clipPath>
	
		<use xlink:href="#SVGID_12_"  overflow="visible" fill-rule="evenodd" clip-rule="evenodd" fill="none" stroke="#570D60" stroke-width="2" stroke-miterlimit="10"/>
</g>
<g id="_Ball_3_">
	<defs>
		<path id="SVGID_14_" d="M12.8,6.6c0,3.1-2.5,5.6-5.6,5.6c-3.1,0-5.6-2.5-5.6-5.6C1.6,3.5,4.1,1,7.2,1C10.3,1,12.8,3.5,12.8,6.6
			L12.8,6.6z"/>
	</defs>
	
		<radialGradient id="SVGID_15_" cx="-320.8916" cy="-2.2151" r="5.6136" gradientTransform="matrix(6.123234e-17 1 -1 6.123234e-17 5.0048 327.5051)" gradientUnits="userSpaceOnUse">
		<stop  offset="0" style="stop-color:#CC33AE"/>
		<stop  offset="1" style="stop-color:#9A1A81"/>
	</radialGradient>
	<use xlink:href="#SVGID_14_"  overflow="visible" fill-rule="evenodd" clip-rule="evenodd" fill="url(#SVGID_15_)"/>
	<clipPath id="SVGID_16_">
		<use xlink:href="#SVGID_14_"  overflow="visible"/>
	</clipPath>
	
		<use xlink:href="#SVGID_14_"  overflow="visible" fill-rule="evenodd" clip-rule="evenodd" fill="none" stroke="#570D60" stroke-width="2" stroke-miterlimit="10"/>
</g>
<radialGradient id="_Ball_6_" cx="-159.3644" cy="-7.9873" r="4.8177" gradientTransform="matrix(6.123234e-17 1 -1 6.123234e-17 5.0048 327.5051)" gradientUnits="userSpaceOnUse">
	<stop  offset="0" style="stop-color:#CC33AE"/>
	<stop  offset="1" style="stop-color:#9A1A81"/>
</radialGradient>
<path id="_Ball_2_" fill="url(#_Ball_6_)" stroke="#570D60" stroke-width="2" stroke-miterlimit="10" d="M17.6,169.5
	c0,0,0-0.1,0-0.1c0.1-0.4,0.1-0.8,0.1-1.2c0-1.1-0.4-2.1-1-2.9c-0.9-1.2-2.3-1.9-3.8-1.9c-0.1,0-0.2,0-0.3,0c-1.5,0.1-2.8,0.9-3.6,2
	c-0.6,0.8-0.9,1.8-0.9,2.8c0,2.7,2.2,4.8,4.8,4.8c0.7,0,1.4-0.2,2-0.5C16.3,171.9,17.2,170.8,17.6,169.5z"/>
<radialGradient id="_Ball_7_" cx="-239.4625" cy="-44.5453" r="6.431" gradientTransform="matrix(6.123234e-17 1 -1 6.123234e-17 5.0048 327.5051)" gradientUnits="userSpaceOnUse">
	<stop  offset="0" style="stop-color:#CC33AE"/>
	<stop  offset="1" style="stop-color:#9A1A81"/>
</radialGradient>
<path id="_Ball_1_" fill="url(#_Ball_7_)" stroke="#570D60" stroke-width="2" stroke-miterlimit="10" d="M43.4,89.8
	c0.2,0.6,0.4,1.2,0.7,1.7c0.8,1.2,1.9,2.1,3.2,2.6c0.7,0.3,1.4,0.4,2.2,0.4c3.5,0,6.4-2.9,6.4-6.4c0-1.1-0.3-2.1-0.8-3
	c-0.7-1.3-1.7-2.3-3-2.8c-0.8-0.4-1.7-0.6-2.6-0.6c-2.7,0-5,1.6-5.9,4c-0.3,0.8-0.5,1.6-0.5,2.5C43.1,88.6,43.2,89.2,43.4,89.8z"/>
<radialGradient id="_Ball_8_" cx="-222.8263" cy="-8.022" r="4.8177" gradientTransform="matrix(6.123234e-17 1 -1 6.123234e-17 5.0048 327.5051)" gradientUnits="userSpaceOnUse">
	<stop  offset="0" style="stop-color:#CC33AE"/>
	<stop  offset="1" style="stop-color:#9A1A81"/>
</radialGradient>
<path id="_Ball" fill="url(#_Ball_8_)" stroke="#570D60" stroke-width="2" stroke-miterlimit="10" d="M17.7,106c0,0,0-0.1,0-0.1
	c0.1-0.4,0.1-0.8,0.1-1.2c0-1.1-0.4-2.1-1-2.9c-0.9-1.2-2.3-1.9-3.8-1.9c-0.1,0-0.2,0-0.3,0c-1.5,0.1-2.8,0.9-3.6,2
	c-0.6,0.8-0.9,1.8-0.9,2.8c0,2.7,2.2,4.8,4.8,4.8c0.7,0,1.4-0.2,2-0.5C16.3,108.5,17.3,107.3,17.7,106z"/>
</svg>
