<?xml version="1.0" encoding="utf-8"?>
<!-- Generator: Adobe Illustrator 22.0.0, SVG Export Plug-In . SVG Version: 6.00 Build 0)  -->
<svg version="1.1" id="Roadmap" xmlns="http://www.w3.org/2000/svg" xmlns:xlink="http://www.w3.org/1999/xlink" x="0px" y="0px"
	 viewBox="0 0 800.5 188.5" style="enable-background:new 0 0 800.5 188.5;" xml:space="preserve">
<style type="text/css">
	.st0{fill:url(#SVGID_1_);}
	.st1{fill:url(#SVGID_2_);}
	.st2{fill:url(#SVGID_3_);}
	.st3{fill:url(#SVGID_4_);}
	.st4{fill:url(#SVGID_5_);}
	.st5{fill:url(#SVGID_6_);}
	.st6{fill:url(#SVGID_7_);}
	.st7{fill:url(#SVGID_8_);}
	.st8{fill:url(#_Ball_6_);stroke:#570D60;stroke-width:4;stroke-miterlimit:10;}
	.st9{fill:url(#_Ball_7_);stroke:#570D60;stroke-width:4;stroke-miterlimit:10;}
	.st10{fill:url(#_Ball_8_);stroke:#570D60;stroke-width:4;stroke-miterlimit:10;}
</style>
<g>
	<g>
		<linearGradient id="SVGID_1_" gradientUnits="userSpaceOnUse" x1="497.6825" y1="136.433" x2="498.1761" y2="136.433">
			<stop  offset="0" style="stop-color:#570D60"/>
			<stop  offset="1" style="stop-color:#851775"/>
		</linearGradient>
		<path class="st0" d="M498.1,136.7c0-0.2,0-0.4,0.1-0.6c-0.2,0.2-0.3,0.3-0.5,0.5C497.8,136.6,498,136.7,498.1,136.7z"/>
		<linearGradient id="SVGID_2_" gradientUnits="userSpaceOnUse" x1="485.7644" y1="93.0023" x2="535.5339" y2="93.0023">
			<stop  offset="0" style="stop-color:#570D60"/>
			<stop  offset="1" style="stop-color:#851775"/>
		</linearGradient>
		<path class="st1" d="M497.7,136.6c0.2-0.2,0.3-0.3,0.5-0.5c3.3-31.1,16.9-59.1,37.4-80.6c-3.7-1.8-6.7-4.8-8.6-8.5
			c-23.3,24.4-38.4,56.5-41.2,92c2.4-1.8,5.3-2.8,8.5-2.8C495.4,136.2,496.6,136.3,497.7,136.6z"/>
		<linearGradient id="SVGID_3_" gradientUnits="userSpaceOnUse" x1="498.1217" y1="100.3314" x2="550.3397" y2="100.3314">
			<stop  offset="0" style="stop-color:#570D60"/>
			<stop  offset="1" style="stop-color:#851775"/>
		</linearGradient>
		<path class="st2" d="M550.3,56.3c-2,0.7-4.2,1.1-6.4,1.1c-2,0-4-0.3-5.8-0.9c-4.2,30.9-18.7,58.6-39.9,79.6c0,0.2,0,0.4-0.1,0.6
			c4,1.1,7.2,3.9,9,7.6C530.3,121.1,546.1,90.5,550.3,56.3z"/>
		<linearGradient id="SVGID_4_" gradientUnits="userSpaceOnUse" x1="555.3608" y1="75.3766" x2="787.9454" y2="75.3766">
			<stop  offset="0" style="stop-color:#570D60"/>
			<stop  offset="1" style="stop-color:#851775"/>
		</linearGradient>
		<path class="st3" d="M636.6,0c-29.9,0-57.8,8.7-81.3,23.6c3.3,2.5,5.7,6,6.8,10c21.6-13.7,47.1-21.6,74.5-21.6
			c76.6,0,139,62,139.2,138.4c1.8-0.8,3.7-1.2,5.7-1.2c2.3,0,4.5,0.5,6.4,1.5C787.9,67.6,720,0,636.6,0z"/>
	</g>
	<linearGradient id="SVGID_5_" gradientUnits="userSpaceOnUse" x1="12.3977" y1="75.3967" x2="248.9017" y2="75.3967">
		<stop  offset="0" style="stop-color:#570D60"/>
		<stop  offset="1" style="stop-color:#851775"/>
	</linearGradient>
	<path class="st4" d="M248.9,26.2C224.6,9.7,195.3,0,163.7,0C80.3,0,12.4,67.6,12.4,150.8h12.1C24.5,74.3,87,12.1,163.7,12.1
		c28.4,0,54.8,8.5,76.8,23.1C242.3,31.4,245.2,28.2,248.9,26.2z"/>
	<g>
		<linearGradient id="SVGID_6_" gradientUnits="userSpaceOnUse" x1="314.4782" y1="169.8593" x2="486.0196" y2="169.8593">
			<stop  offset="0" style="stop-color:#570D60"/>
			<stop  offset="1" style="stop-color:#851775"/>
		</linearGradient>
		<path class="st5" d="M486,161.8c-3.4-2.4-5.6-6.2-5.9-10.6c-22.6,15.9-50.2,25.2-80,25.2c-29.4,0-56.6-9.1-79.1-24.6
			c-0.6,4.3-3.1,7.9-6.6,10.1c24.4,16.8,53.9,26.6,85.7,26.6C432,188.5,461.6,178.6,486,161.8z"/>
		<linearGradient id="SVGID_7_" gradientUnits="userSpaceOnUse" x1="250.5466" y1="102.5794" x2="302.212" y2="102.5794">
			<stop  offset="0" style="stop-color:#570D60"/>
			<stop  offset="1" style="stop-color:#851775"/>
		</linearGradient>
		<path class="st6" d="M298.6,138.6c1.1-0.8,2.3-1.5,3.7-2c0-0.2,0-0.3,0-0.5c-20.2-20-34.3-46-39.2-75.1c-1.6,0.5-3.3,0.7-5.1,0.7
			c-2.6,0-5-0.5-7.3-1.5c5,32.8,20.6,62.2,43.3,84.6C294.8,142.4,296.4,140.2,298.6,138.6z"/>
		<linearGradient id="SVGID_8_" gradientUnits="userSpaceOnUse" x1="267.8792" y1="93.6375" x2="314.4897" y2="93.6375">
			<stop  offset="0" style="stop-color:#570D60"/>
			<stop  offset="1" style="stop-color:#851775"/>
		</linearGradient>
		<path class="st7" d="M310.5,136.2c0.1,0,0.3,0.1,0.4,0.1c1.3,0.4,2.5,0.9,3.6,1.6c-2.9-33.9-17.1-64.7-38.9-88.5
			c-1.5,3.9-4.2,7.3-7.7,9.5c18.7,21.1,31.2,47.8,34.3,77.3c0.1,0.1,0.2,0.2,0.4,0.4c1.4-0.5,2.9-0.7,4.5-0.7
			C308.2,135.8,309.4,135.9,310.5,136.2z"/>
	</g>
</g>
<g id="_Ball_5_">
	<defs>
		<path id="SVGID_9_" d="M543.9,21.3c9.6,0,17.5,7.8,17.5,17.5c0,9.6-7.8,17.5-17.5,17.5c-9.6,0-17.5-7.8-17.5-17.5
			C526.5,29.1,534.3,21.3,543.9,21.3L543.9,21.3z"/>
	</defs>
	<radialGradient id="SVGID_10_" cx="543.9169" cy="38.7437" r="17.4632" gradientUnits="userSpaceOnUse">
		<stop  offset="0" style="stop-color:#CC33AE"/>
		<stop  offset="1" style="stop-color:#9A1A81"/>
	</radialGradient>
	<use xlink:href="#SVGID_9_"  style="overflow:visible;fill-rule:evenodd;clip-rule:evenodd;fill:url(#SVGID_10_);"/>
	<clipPath id="SVGID_11_">
		<use xlink:href="#SVGID_9_"  style="overflow:visible;"/>
	</clipPath>
	
		<use xlink:href="#SVGID_9_"  style="overflow:visible;fill-rule:evenodd;clip-rule:evenodd;fill:none;stroke:#570D60;stroke-width:4;stroke-miterlimit:10;"/>
</g>
<g id="_Ball_4_">
	<defs>
		<path id="SVGID_12_" d="M782,150.8c9.1,0,16.5,7.4,16.5,16.5c0,9.1-7.4,16.5-16.5,16.5c-9.1,0-16.5-7.4-16.5-16.5
			C765.5,158.1,772.9,150.8,782,150.8L782,150.8z"/>
	</defs>
	<radialGradient id="SVGID_13_" cx="796.6714" cy="166.3632" r="23.6673" gradientUnits="userSpaceOnUse">
		<stop  offset="0" style="stop-color:#CC33AE"/>
		<stop  offset="1" style="stop-color:#9A1A81"/>
	</radialGradient>
	<use xlink:href="#SVGID_12_"  style="overflow:visible;fill-rule:evenodd;clip-rule:evenodd;fill:url(#SVGID_13_);"/>
	<clipPath id="SVGID_14_">
		<use xlink:href="#SVGID_12_"  style="overflow:visible;"/>
	</clipPath>
	
		<use xlink:href="#SVGID_12_"  style="overflow:visible;fill-rule:evenodd;clip-rule:evenodd;fill:none;stroke:#570D60;stroke-width:4;stroke-miterlimit:10;"/>
</g>
<g id="_Ball_3_">
	<defs>
		<path id="SVGID_15_" d="M18.5,150.8c9.1,0,16.5,7.4,16.5,16.5c0,9.1-7.4,16.5-16.5,16.5c-9.1,0-16.5-7.4-16.5-16.5
			C2,158.2,9.4,150.8,18.5,150.8L18.5,150.8z"/>
	</defs>
	<radialGradient id="SVGID_16_" cx="18.4991" cy="167.2892" r="16.4996" gradientUnits="userSpaceOnUse">
		<stop  offset="0" style="stop-color:#CC33AE"/>
		<stop  offset="1" style="stop-color:#9A1A81"/>
	</radialGradient>
	<use xlink:href="#SVGID_15_"  style="overflow:visible;fill-rule:evenodd;clip-rule:evenodd;fill:url(#SVGID_16_);"/>
	<clipPath id="SVGID_17_">
		<use xlink:href="#SVGID_15_"  style="overflow:visible;"/>
	</clipPath>
	
		<use xlink:href="#SVGID_15_"  style="overflow:visible;fill-rule:evenodd;clip-rule:evenodd;fill:none;stroke:#570D60;stroke-width:4;stroke-miterlimit:10;"/>
</g>
<radialGradient id="_Ball_6_" cx="493.2607" cy="150.3234" r="14.1604" gradientUnits="userSpaceOnUse">
	<stop  offset="0" style="stop-color:#CC33AE"/>
	<stop  offset="1" style="stop-color:#9A1A81"/>
</radialGradient>
<path id="_Ball_2_" class="st8" d="M497.1,136.7c-0.1,0-0.3-0.1-0.4-0.1c-1.1-0.3-2.2-0.4-3.4-0.4c-3.2,0-6.1,1.1-8.5,2.8
	c-3.4,2.6-5.7,6.7-5.7,11.3c0,0.3,0,0.6,0,0.9c0.3,4.4,2.5,8.2,5.9,10.6c2.3,1.7,5.2,2.6,8.2,2.6c7.8,0,14.2-6.3,14.2-14.1
	c0-2.2-0.5-4.2-1.4-6C504.3,140.6,501.1,137.8,497.1,136.7z"/>
<radialGradient id="_Ball_7_" cx="257.8361" cy="42.8719" r="18.902" gradientUnits="userSpaceOnUse">
	<stop  offset="0" style="stop-color:#CC33AE"/>
	<stop  offset="1" style="stop-color:#9A1A81"/>
</radialGradient>
<path id="_Ball_1_" class="st9" d="M262.9,61c1.8-0.5,3.4-1.2,4.9-2.2c3.5-2.2,6.3-5.5,7.7-9.5c0.7-2,1.2-4.2,1.2-6.5
	c0-10.4-8.5-18.9-18.9-18.9c-3.2,0-6.3,0.8-8.9,2.2c-3.7,2-6.6,5.1-8.3,8.9c-1.1,2.4-1.7,5-1.7,7.7c0,7.8,4.8,14.6,11.6,17.4
	c2.2,0.9,4.7,1.5,7.3,1.5C259.6,61.7,261.3,61.5,262.9,61z"/>
<radialGradient id="_Ball_8_" cx="306.7333" cy="150.2215" r="14.1604" gradientUnits="userSpaceOnUse">
	<stop  offset="0" style="stop-color:#CC33AE"/>
	<stop  offset="1" style="stop-color:#9A1A81"/>
</radialGradient>
<path id="_Ball" class="st10" d="M310.6,136.6c-0.1,0-0.3-0.1-0.4-0.1c-1.1-0.3-2.2-0.4-3.4-0.4c-3.2,0-6.1,1.1-8.5,2.8
	c-3.4,2.6-5.7,6.7-5.7,11.3c0,0.3,0,0.6,0,0.9c0.3,4.4,2.5,8.2,5.9,10.6c2.3,1.7,5.2,2.6,8.2,2.6c7.8,0,14.2-6.3,14.2-14.1
	c0-2.2-0.5-4.2-1.4-6C317.8,140.5,314.6,137.7,310.6,136.6z"/>
</svg>
