<?xml version="1.0" encoding="utf-8"?>
<!-- Generator: Adobe Illustrator 22.0.0, SVG Export Plug-In . SVG Version: 6.00 Build 0)  -->
<svg version="1.0" id="Соцсети_1_" xmlns="http://www.w3.org/2000/svg" xmlns:xlink="http://www.w3.org/1999/xlink" x="0px"
	 y="0px" viewBox="0 0 22 22" enable-background="new 0 0 22 22" xml:space="preserve">
<g id="Соцсети">
	<g id="Circle" display="none">
		<defs>
			<path id="SVGID_1_" d="M11,0c6.1,0,11,4.9,11,11c0,6.1-4.9,11-11,11C4.9,22,0,17.1,0,11C0,4.9,4.9,0,11,0L11,0z"/>
		</defs>
		<use xlink:href="#SVGID_1_"  display="inline" overflow="visible" fill-rule="evenodd" clip-rule="evenodd" fill="#280F61"/>
		<clipPath id="SVGID_2_" display="inline">
			<use xlink:href="#SVGID_1_"  overflow="visible"/>
		</clipPath>
	</g>
	<g id="_x35_" display="none">
		<defs>
			<path id="SVGID_3_" d="M14.7,3l-2.2,0c-2.4,0-4,1.5-4,3.9v1.8H6.3C6.2,8.8,6,8.9,6,9.1v2.6C6,11.9,6.2,12,6.3,12h2.2v6.6
				c0,0.2,0.2,0.3,0.3,0.3h2.8c0.2,0,0.3-0.1,0.3-0.3V12h2.5c0.2,0,0.3-0.1,0.3-0.3l0-2.6c0-0.1,0-0.2-0.1-0.2
				c-0.1-0.1-0.1-0.1-0.2-0.1H12V7.2c0-0.7,0.2-1.1,1.2-1.1h1.5C14.8,6.1,15,6,15,5.8V3.3C15,3.1,14.8,3,14.7,3L14.7,3z"/>
		</defs>
		<use xlink:href="#SVGID_3_"  display="inline" overflow="visible" fill="#9d76b1"/>
		<clipPath id="SVGID_4_" display="inline">
			<use xlink:href="#SVGID_3_"  overflow="visible"/>
		</clipPath>
	</g>
	<g id="_x34_" display="none">
		<defs>
			<path id="SVGID_5_" d="M1.3,11.2l3.9,1.5l1.5,4.9c0.1,0.3,0.5,0.4,0.7,0.2L9.6,16c0.2-0.2,0.6-0.2,0.8,0l3.9,2.9
				c0.3,0.2,0.7,0,0.7-0.3L18,4.6c0.1-0.4-0.3-0.7-0.6-0.5L1.3,10.3C0.9,10.5,0.9,11,1.3,11.2L1.3,11.2z M6.5,11.9l7.7-4.8
				c0.1-0.1,0.3,0.1,0.2,0.2l-6.3,6c-0.2,0.2-0.4,0.5-0.4,0.8l-0.2,1.6c0,0.2-0.3,0.2-0.4,0l-0.8-2.9C6.1,12.4,6.2,12.1,6.5,11.9
				L6.5,11.9z"/>
		</defs>
		<use xlink:href="#SVGID_5_"  display="inline" overflow="visible" fill="#9d76b1"/>
		<clipPath id="SVGID_6_" display="inline">
			<use xlink:href="#SVGID_5_"  overflow="visible"/>
		</clipPath>
	</g>
	<g id="_x33_" display="none">
		<defs>
			<path id="SVGID_7_" d="M3,17.7v-12L8.3,7v12L3,17.7L3,17.7z M9.4,14V8.5l4.3,6.5L9.4,14L9.4,14z M14.2,14l-3.4-5.1L13.7,3L19,4.3
				L14.2,14L14.2,14z M14.7,15.2l4.2-8.6v9.7L14.7,15.2L14.7,15.2z"/>
		</defs>
		<use xlink:href="#SVGID_7_"  display="inline" overflow="visible" fill="#9d76b1"/>
		<clipPath id="SVGID_8_" display="inline">
			<use xlink:href="#SVGID_7_"  overflow="visible"/>
		</clipPath>
	</g>
	<g id="_x32_">
		<defs>
			<path id="SVGID_9_" d="M16.5,7.3h-1.2c-0.3,0-0.6-0.3-0.6-0.6V5.5c0-0.3,0.3-0.6,0.6-0.6h1.2c0.3,0,0.6,0.3,0.6,0.6v1.2
				C17.2,7,16.9,7.3,16.5,7.3L16.5,7.3z M11,13.3c-1.3,0-2.3-1-2.3-2.3c0-0.4,0.1-0.9,0.3-1.2c0,0.1-0.1,0.2-0.1,0.3
				c0,0.7,0.5,1.2,1.2,1.2c0.7,0,1.2-0.5,1.2-1.2c0-0.7-0.5-1.2-1.2-1.2C10,8.9,9.9,9,9.8,9c0.4-0.2,0.8-0.3,1.2-0.3
				c1.3,0,2.3,1,2.3,2.3C13.3,12.3,12.3,13.3,11,13.3L11,13.3z M11,15.9c-2.7,0-4.9-2.2-4.9-4.9c0-2.7,2.2-4.9,4.9-4.9
				c2.7,0,4.9,2.2,4.9,4.9C15.9,13.7,13.7,15.9,11,15.9L11,15.9z M11,7.3C9,7.3,7.3,9,7.3,11c0,2,1.7,3.7,3.7,3.7
				c2,0,3.7-1.7,3.7-3.7C14.7,9,13,7.3,11,7.3L11,7.3z M16,19H6c-1.7,0-3-1.3-3-3V6c0-1.7,1.3-3,3-3h10c1.7,0,3,1.3,3,3v10
				C19,17.7,17.7,19,16,19L16,19z M17.8,6c0-1-0.8-1.8-1.8-1.8H6C5,4.2,4.2,5,4.2,6v2.5h4C7.7,9.2,7.3,10.1,7.3,11
				c0,2,1.7,3.7,3.7,3.7c2,0,3.7-1.7,3.7-3.7c0-0.9-0.4-1.8-0.9-2.5h4V6L17.8,6z"/>
		</defs>
		<use xlink:href="#SVGID_9_"  overflow="visible" fill="#9d76b1"/>
		<clipPath id="SVGID_10_">
			<use xlink:href="#SVGID_9_"  overflow="visible"/>
		</clipPath>
	</g>
	<g id="_x31_" display="none">
		<g display="inline">
			<defs>
				<path id="SVGID_11_" d="M13.9,12.1c-0.8-0.3-1.2,0-1.2,0s-2.5-2.2-2.8-2.5C10.1,9,9.8,8.5,9.7,8.3C9,7.4,8,7.7,7.8,7.8
					C6.5,8.5,7,9.6,7,9.6l-5,3.9c0-0.1,0-0.2,0-0.4c0-1.5,1-2.8,2.4-3.1c0-0.1,0-0.3,0-0.4c0-2.9,2.3-5.2,5.2-5.2
					c1.8,0,3.4,1,4.4,2.4c0.3-0.1,0.6-0.2,1-0.2c1.2,0,2.2,0.7,2.6,1.8C16.6,9.3,14.2,11.7,13.9,12.1L13.9,12.1z M7.7,10.6
					c0.7,0.4,1.4,0,1.4,0s2.3,2.1,2.8,2.5c-0.3,1.3,0.6,1.7,0.8,1.8c0.7,0.4,1.5-0.1,1.6-0.2c1-0.6,0.5-1.8,0.5-1.8l2.9-2.9
					c1.5,0.3,2.7,1.6,2.7,3.2c0,1.8-1.4,3.2-3.2,3.2h-12c-1.2,0-2.2-0.6-2.8-1.6C3.7,13.8,7.2,10.9,7.7,10.6L7.7,10.6z"/>
			</defs>
			<use xlink:href="#SVGID_11_"  overflow="visible" fill-rule="evenodd" clip-rule="evenodd" fill="#9d76b1"/>
			<clipPath id="SVGID_12_">
				<use xlink:href="#SVGID_11_"  overflow="visible"/>
			</clipPath>
		</g>
	</g>
</g>
</svg>
