<?xml version="1.0" encoding="utf-8"?>
<!-- Generator: Adobe Illustrator 22.0.0, SVG Export Plug-In . SVG Version: 6.00 Build 0)  -->
<svg version="1.0" id="Logo" xmlns="http://www.w3.org/2000/svg" xmlns:xlink="http://www.w3.org/1999/xlink" x="0px" y="0px"
	 viewBox="0 0 100 31.7" enable-background="new 0 0 100 31.7" xml:space="preserve">
<g id="Логотип">
	<path fill="#79138E" d="M31.4,21.3c0,0.5,0,0.9,0,1.4c-0.8,0-1.6,0-2.3,0c-0.1-0.5-0.1-10.9,0-13.9c0.4-0.1,1.8-0.1,2.5,0
		c0,1.6,0,3.1,0,4.8c0.1-0.1,0.2-0.1,0.3-0.2c0.6-0.6,1.3-1,2.1-1.2c0.6-0.2,1.2-0.2,1.8-0.1c0.5,0.1,1,0.2,1.4,0.4
		c0.4,0.2,0.7,0.4,1,0.6c0.5,0.4,0.9,0.8,1.2,1.4c0.4,0.8,0.7,1.5,0.7,2.4c0,0.2,0.1,0.4,0.1,0.5c0,0.2,0,0.3-0.1,0.5
		c0,0.3,0,0.6-0.1,1c-0.2,0.9-0.6,1.7-1.1,2.4c-0.6,0.7-1.4,1.2-2.3,1.5C35.8,23,35,23.1,34.2,23c-1.1-0.1-2-0.6-2.6-1.5
		c0,0-0.1-0.1-0.1-0.1C31.4,21.4,31.4,21.4,31.4,21.3z M37.6,17.5c0-0.2,0-0.5,0-0.7c-0.2-0.7-0.5-1.2-1-1.7
		c-0.6-0.6-1.3-0.7-2.1-0.8c-0.3,0-0.6,0.1-0.9,0.2c-1,0.2-1.6,0.9-2,1.8c-0.4,0.9-0.3,1.7,0,2.6c0.2,0.5,0.5,1,1,1.3
		c0.8,0.6,1.7,0.7,2.7,0.5c0.4-0.1,0.7-0.3,1-0.5C37.2,19.5,37.7,18.6,37.6,17.5z"/>
	<path fill="#79138E" d="M49.4,19.5c0.9,0,1.7,0,2.5,0c-0.7,1.7-2,2.8-3.7,3.3c-0.8,0.2-1.5,0.2-2.3,0.1c-1.2-0.2-2.1-0.7-2.9-1.5
		c-0.8-0.8-1.3-1.7-1.5-2.8c-0.1-0.6-0.1-1.3-0.1-1.9c0.2-1.1,0.6-2.1,1.4-2.9c0.7-0.7,1.4-1.2,2.4-1.5c0.7-0.2,1.4-0.3,2.2-0.2
		c1.1,0.1,2.1,0.5,2.9,1.2c0.8,0.7,1.4,1.6,1.8,2.6c0.2,0.5,0.2,1,0.3,1.6c0,0.3-0.1,0.6-0.1,1c-2.8,0-5.6,0-8.3,0
		c-0.1,1,0.7,2,1.8,2.4C47.2,21.2,48.6,20.8,49.4,19.5z M43.9,16.4c1.9,0,3.9,0,5.8,0c0-0.1,0-0.1,0-0.1c0,0,0-0.1,0-0.1
		c-0.2-0.7-0.6-1.3-1.3-1.6c-0.7-0.4-1.4-0.6-2.2-0.4c-0.8,0.2-1.5,0.6-2,1.3C44.1,15.7,44,16,43.9,16.4z"/>
	<path fill="#79138E" d="M93.6,18.3c-2.8,0-5.6,0-8.3,0c0,0.4,0.1,0.8,0.3,1.2c0.4,0.7,1.1,1.1,1.8,1.3c0.6,0.2,1.2,0.1,1.8,0
		c0.6-0.2,1.1-0.6,1.4-1.1c0-0.1,0.1-0.1,0.1-0.1c0.8,0,1.7,0,2.5,0c-0.3,0.8-0.8,1.5-1.5,2.1c-0.7,0.6-1.5,1.1-2.5,1.3
		C88.7,23,88.2,23,87.6,23c-0.7-0.1-1.4-0.3-2-0.6c-0.4-0.2-0.8-0.5-1.1-0.8c-0.8-0.8-1.4-1.8-1.6-3c-0.3-1.7,0.1-3.2,1.1-4.5
		c0.8-1,1.8-1.7,3.1-2c0.7-0.1,1.3-0.2,2,0c1.4,0.2,2.5,0.9,3.3,1.9c0.6,0.7,1,1.6,1.2,2.5c0.1,0.3,0.1,0.6,0.1,1
		C93.7,17.7,93.6,18,93.6,18.3z M85.3,16.4c1.9,0,3.9,0,5.8,0c0.1-0.3-0.1-0.6-0.2-0.8c-0.6-1-1.5-1.5-2.7-1.5
		c-0.4,0-0.9,0.1-1.3,0.3c-0.8,0.3-1.3,0.9-1.6,1.6C85.3,16.1,85.3,16.3,85.3,16.4z"/>
	<path fill="#79138E" d="M56.5,12.3c0,0.4,0,0.8,0,1.3c0.4-0.4,0.7-0.8,1.1-1c0.4-0.2,0.8-0.3,1.2-0.4C59.2,12,59.6,12,60,12
		c1,0.1,1.9,0.4,2.7,1.2c0.4,0.5,0.7,1.1,0.9,1.7c0.1,0.6,0.2,1.2,0.2,1.7c0,1.9,0,3.8,0,5.7c0,0.1,0,0.3,0,0.5c-0.8,0-1.6,0-2.5,0
		c0-0.1,0-0.3,0-0.4c0-1.8,0-3.6,0-5.4c0-0.5-0.1-0.9-0.2-1.3c-0.2-0.7-0.9-1.3-1.7-1.2c-0.4,0-0.8,0-1.2,0.1
		c-0.6,0.2-1.1,0.6-1.3,1.3c-0.1,0.2-0.1,0.5-0.2,0.8c-0.2,1.9,0,3.8-0.1,5.7c0,0.2,0,0.3,0,0.5c-0.8,0-1.6,0-2.5,0
		c0-0.1,0-0.2,0-0.3c0-3.2,0-6.4,0-9.6c0-0.1,0-0.1,0-0.2c0-0.2,0.1-0.3,0.3-0.3C55.1,12.3,55.8,12.3,56.5,12.3z"/>
	<path fill="#79138E" d="M79,19c0.9,0,1.7,0,2.5,0c0,0.3-0.2,0.6-0.3,0.9c-0.2,0.6-0.6,1.1-1,1.5c-0.8,0.8-1.8,1.3-2.9,1.6
		c-1.2,0.2-2.3,0.1-3.4-0.3c-1-0.4-1.8-1.1-2.4-2.1c-0.4-0.6-0.6-1.3-0.8-2c-0.1-0.4,0-0.8,0-1.2c0-0.8,0.2-1.5,0.5-2.2
		c0.4-0.9,1-1.6,1.8-2.2c0.6-0.4,1.2-0.7,1.9-0.9c0.7-0.1,1.3-0.2,2-0.1c0.6,0.1,1.2,0.2,1.8,0.5c1.2,0.6,2.2,1.6,2.6,2.9
		c0.1,0.2,0.2,0.4,0.2,0.7c-0.8,0-1.6,0-2.4,0c-0.1-0.1-0.2-0.3-0.3-0.4c-0.4-0.7-1-1.1-1.7-1.3c-0.4-0.1-0.8-0.2-1.2-0.1
		c-0.3,0.1-0.6,0.1-0.9,0.3c-0.9,0.4-1.4,1.1-1.6,1.9c-0.3,0.9-0.2,1.8,0.3,2.7c0.4,0.8,1.2,1.3,2.1,1.5c0.7,0.1,1.3,0,1.9-0.2
		c0.6-0.3,1.1-0.7,1.4-1.3C78.9,19.1,78.9,19,79,19z"/>
	<path fill="#79138E" d="M68.6,12.3c0,3.5,0,6.9,0,10.4c-0.4,0-0.8,0-1.2,0c-0.4,0-0.8,0-1.2,0c0-0.1,0-0.2,0-0.3c0-3.2,0-6.4,0-9.6
		c0,0,0-0.1,0-0.1c0-0.3,0.1-0.3,0.3-0.3c0.3,0,0.7,0,1,0C67.8,12.3,68.2,12.3,68.6,12.3z"/>
	<path fill="#79138E" d="M66.2,10.9c0-0.7,0-1.4,0-2.1c0.4-0.1,1.8-0.1,2.5,0c0,0.7,0,1.4,0,2.1C67.8,10.9,67,10.9,66.2,10.9z"/>
	<linearGradient id="SVGID_1_" gradientUnits="userSpaceOnUse" x1="9.5119" y1="-4.3203" x2="-7.9764" y2="28.197">
		<stop  offset="0" style="stop-color:#E15DD3"/>
		<stop  offset="1" style="stop-color:#8E34F7"/>
	</linearGradient>
	<circle fill="url(#SVGID_1_)" cx="4.7" cy="4.7" r="4.7"/>
	<linearGradient id="SVGID_2_" gradientUnits="userSpaceOnUse" x1="14.1802" y1="-1.8097" x2="-3.3081" y2="30.7076">
		<stop  offset="0" style="stop-color:#E15DD3"/>
		<stop  offset="1" style="stop-color:#8E34F7"/>
	</linearGradient>
	<circle fill="url(#SVGID_2_)" cx="4.7" cy="15.9" r="4.7"/>
	<linearGradient id="SVGID_3_" gradientUnits="userSpaceOnUse" x1="18.8484" y1="0.701" x2="1.3601" y2="33.2183">
		<stop  offset="0" style="stop-color:#E15DD3"/>
		<stop  offset="1" style="stop-color:#8E34F7"/>
	</linearGradient>
	<circle fill="url(#SVGID_3_)" cx="4.7" cy="27.1" r="4.7"/>
	<linearGradient id="SVGID_4_" gradientUnits="userSpaceOnUse" x1="24.3584" y1="3.6643" x2="6.8701" y2="36.1816">
		<stop  offset="0" style="stop-color:#E15DD3"/>
		<stop  offset="1" style="stop-color:#8E34F7"/>
	</linearGradient>
	<circle fill="url(#SVGID_4_)" cx="14.9" cy="21.3" r="4.7"/>
	<path fill="#79138E" d="M95.8,11.4c0-1.2,0.9-2.1,2.1-2.1c1.2,0,2.1,1,2.1,2.1c0,1.2-0.9,2.1-2.1,2.1
		C96.7,13.5,95.8,12.5,95.8,11.4z M99.8,11.4c0-1-0.8-1.9-1.9-1.9c-1.1,0-1.9,0.9-1.9,1.9c0,1,0.8,1.9,1.9,1.9
		C98.9,13.3,99.8,12.4,99.8,11.4z M97,10.2h1c0.4,0,0.6,0.1,0.8,0.3c0.1,0.1,0.2,0.3,0.2,0.5c0,0.3-0.2,0.6-0.5,0.7l0.5,0.8h-0.7
		l-0.5-0.7h-0.3v0.7H97V10.2z M98,11.3c0.2,0,0.3-0.1,0.3-0.3c0-0.2-0.1-0.3-0.3-0.3h-0.4v0.5H98z"/>
</g>
</svg>
