<?xml version="1.0" encoding="utf-8"?>
<!-- Generator: Adobe Illustrator 22.0.0, SVG Export Plug-In . SVG Version: 6.00 Build 0)  -->
<svg version="1.0" id="Слой_1" xmlns="http://www.w3.org/2000/svg" xmlns:xlink="http://www.w3.org/1999/xlink" x="0px" y="0px"
	 viewBox="0 0 20 16" enable-background="new 0 0 20 16" xml:space="preserve">
<g id="Header">
	<g id="меню">
		<path fill="#fafafa" d="M18.1,0H1.9C0.9,0,0,0.8,0,1.7c0,0.9,0.9,1.7,1.9,1.7h16.1c1.1,0,1.9-0.8,1.9-1.7C20,0.8,19.1,0,18.1,0
			L18.1,0z M18.1,0"/>
		<path fill="#fafafa" d="M18.1,6.3H1.9C0.9,6.3,0,7.1,0,8c0,0.9,0.9,1.7,1.9,1.7h16.1C19.1,9.7,20,8.9,20,8
			C20,7.1,19.1,6.3,18.1,6.3L18.1,6.3z M18.1,6.3"/>
		<path fill="#fafafa" d="M18.1,12.6H1.9c-1.1,0-1.9,0.8-1.9,1.7C0,15.2,0.9,16,1.9,16h16.1c1.1,0,1.9-0.8,1.9-1.7
			C20,13.3,19.1,12.6,18.1,12.6L18.1,12.6z M18.1,12.6"/>
	</g>
</g>
</svg>
