<?xml version="1.0" encoding="utf-8"?>
<!-- Generator: Adobe Illustrator 22.0.0, SVG Export Plug-In . SVG Version: 6.00 Build 0)  -->
<svg version="1.0" id="Слой_1" xmlns="http://www.w3.org/2000/svg" xmlns:xlink="http://www.w3.org/1999/xlink" x="0px" y="0px"
	 viewBox="0 0 60 60" enable-background="new 0 0 60 60" xml:space="preserve">
<g>
	<defs>
		<path id="SVGID_1_" d="M5.9,29.6l11.3,4.2l4.4,13.8c0.3,0.9,1.4,1.2,2.1,0.6l6.3-5.1c0.7-0.5,1.6-0.6,2.3-0.1l11.4,8.1
			c0.8,0.6,1.9,0.1,2.1-0.8L54,11c0.2-1-0.8-1.9-1.8-1.5L5.9,27.2C4.7,27.6,4.7,29.2,5.9,29.6L5.9,29.6z M20.8,31.5l22.1-13.4
			c0.4-0.2,0.8,0.3,0.5,0.6L25.2,35.4c-0.6,0.6-1.1,1.4-1.2,2.2l-0.6,4.5c-0.1,0.6-0.9,0.7-1.1,0.1L19.9,34
			C19.6,33.1,20,32.1,20.8,31.5L20.8,31.5z"/>
	</defs>
	<linearGradient id="SVGID_2_" gradientUnits="userSpaceOnUse" x1="5.0129" y1="30.4649" x2="54.0327" y2="30.4649">
		<stop  offset="0" style="stop-color:#702383"/>
		<stop  offset="1" style="stop-color:#9E1981"/>
	</linearGradient>
	<use xlink:href="#SVGID_1_"  overflow="visible" fill="url(#SVGID_2_)"/>
	<clipPath id="SVGID_3_">
		<use xlink:href="#SVGID_1_"  overflow="visible"/>
	</clipPath>
</g>
<g display="none">
	<defs>
		<path id="SVGID_4_" d="M26.5,19.5c-4,0-7.2-3.3-7.2-7.4s3.2-7.4,7.2-7.4c4,0,7.2,3.3,7.2,7.4S30.5,19.5,26.5,19.5L26.5,19.5z
			 M26.5,37.1c-4,0-7.2-3.3-7.2-7.4c0-4.1,3.2-7.4,7.2-7.4c4,0,7.2,3.3,7.2,7.4C33.7,33.8,30.5,37.1,26.5,37.1L26.5,37.1z
			 M26.5,54.7c-4,0-7.2-3.3-7.2-7.4c0-4.1,3.2-7.4,7.2-7.4c4,0,7.2,3.3,7.2,7.4C33.7,51.4,30.5,54.7,26.5,54.7L26.5,54.7z
			 M42.2,45.7c-4,0-7.2-3.3-7.2-7.4s3.2-7.4,7.2-7.4c4,0,7.2,3.3,7.2,7.4S46.1,45.7,42.2,45.7L42.2,45.7z"/>
	</defs>
	<linearGradient id="SVGID_5_" gradientUnits="userSpaceOnUse" x1="19.3536" y1="29.7329" x2="49.3531" y2="29.7329">
		<stop  offset="0" style="stop-color:#702383"/>
		<stop  offset="1" style="stop-color:#9E1981"/>
	</linearGradient>
	<use xlink:href="#SVGID_4_"  display="inline" overflow="visible" fill="url(#SVGID_5_)"/>
	<clipPath id="SVGID_6_" display="inline">
		<use xlink:href="#SVGID_4_"  overflow="visible"/>
	</clipPath>
</g>
<g display="none">
	<defs>
		<path id="SVGID_7_" d="M31.9,2.7c13.2,0,13.8,10,13.8,11.9c0,5.5-3.8,8.3-5.7,9.4c2.4,0.8,7.6,3.3,7.6,10.8c0,10-7,13-13.2,13
			c-4.1,0-7-1.4-8.4-2.2v11.1h-8.4V16C17.5,10.5,21.3,2.7,31.9,2.7L31.9,2.7z M31.6,21.3c5.1,0,5.4-4.2,5.4-6.1
			c0-5.3-4.3-5.5-5.4-5.5c-3.5,0-5.7,2.8-5.7,6.4v23c0.8,0.6,3,1.7,6.5,1.7c6.2,0,6.5-5.3,6.5-6.1c0-6.4-4.3-6.9-6.2-6.9h-3v-6.4
			H31.6L31.6,21.3z"/>
	</defs>
	<linearGradient id="SVGID_8_" gradientUnits="userSpaceOnUse" x1="17.5401" y1="29.7329" x2="47.5459" y2="29.7329">
		<stop  offset="0" style="stop-color:#702383"/>
		<stop  offset="1" style="stop-color:#9E1981"/>
	</linearGradient>
	<use xlink:href="#SVGID_7_"  display="inline" overflow="visible" fill="url(#SVGID_8_)"/>
	<clipPath id="SVGID_9_" display="inline">
		<use xlink:href="#SVGID_7_"  overflow="visible"/>
	</clipPath>
</g>
<g display="none">
	<defs>
		<path id="SVGID_10_" d="M30.8,13c9.7,0,17.5,7.8,17.5,17.5c0,9.7-7.8,17.5-17.5,17.5s-17.5-7.8-17.5-17.5
			C13.3,20.8,21.2,13,30.8,13L30.8,13z"/>
	</defs>
	<linearGradient id="SVGID_11_" gradientUnits="userSpaceOnUse" x1="13.3249" y1="30.4821" x2="48.3246" y2="30.4821">
		<stop  offset="0" style="stop-color:#702383"/>
		<stop  offset="1" style="stop-color:#9E1981"/>
	</linearGradient>
	
		<use xlink:href="#SVGID_10_"  display="inline" overflow="visible" fill-rule="evenodd" clip-rule="evenodd" fill="url(#SVGID_11_)"/>
	<clipPath id="SVGID_12_" display="inline">
		<use xlink:href="#SVGID_10_"  overflow="visible"/>
	</clipPath>
</g>
</svg>
