<?xml version="1.0" encoding="utf-8"?>
<!-- Generator: Adobe Illustrator 22.0.0, SVG Export Plug-In . SVG Version: 6.00 Build 0)  -->
<svg version="1.1" id="Статистика" xmlns="http://www.w3.org/2000/svg" xmlns:xlink="http://www.w3.org/1999/xlink"
	 x="0px" y="0px" viewBox="0 0 179 316" style="enable-background:new 0 0 179 316;" xml:space="preserve">
<style type="text/css">
	.st0{display:none;}
	.st1{display:inline;}
	.st2{fill:#FFFFFF;}
	.st3{fill:#79138E;}
	.st4{fill:url(#SVGID_1_);}
	.st5{fill:url(#SVGID_2_);}
	.st6{fill:url(#SVGID_3_);}
	.st7{fill:url(#SVGID_4_);}
	.st8{clip-path:url(#SVGID_8_);}
	.st9{fill:#359A1A;}
	.st10{font-family:'ProximaNova-Regular';}
	.st11{font-size:7.2647px;}
	.st12{fill:#CC3F37;}
	.st13{font-family:'ProximaNova-Bold';}
	.st14{fill:url(#SVGID_19_);}
	.st15{fill:none;}
	.st16{fill:#DE5BD5;}
	.st17{font-family:'ProximaNova-Black';}
	.st18{font-size:13.1779px;}
	.st19{clip-path:url(#SVGID_21_);fill:url(#SVGID_22_);}
	.st20{fill:none;stroke:#83E700;stroke-miterlimit:10;}
	.st21{fill:none;stroke:#CC3F37;stroke-miterlimit:10;}
	.st22{font-size:3.2945px;}
	.st23{fill:url(#SVGID_29_);}
	.st24{fill:url(#SVGID_30_);}
	.st25{fill:url(#SVGID_31_);}
	.st26{fill:url(#SVGID_32_);}
	.st27{clip-path:url(#SVGID_36_);}
	.st28{fill:url(#SVGID_47_);}
	.st29{clip-path:url(#SVGID_49_);fill:url(#SVGID_50_);}
</style>
<g id="Статистика_с_текстом" class="st0">
	<g id="BG" class="st1">
		<rect x="0" y="0.2" class="st2" width="178.7" height="316"/>
	</g>
	<g id="Логотип" class="st1">
		<path class="st3" d="M81.1,304.8c0,0.2,0,0.4,0,0.6c-0.3,0-0.7,0-1,0c0-0.2-0.1-4.7,0-6c0.2,0,0.8,0,1.1,0c0,0.7,0,1.4,0,2.1
			c0.1,0,0.1,0,0.1-0.1c0.3-0.3,0.6-0.4,0.9-0.5c0.3-0.1,0.5-0.1,0.8,0c0.2,0,0.4,0.1,0.6,0.2c0.2,0.1,0.3,0.2,0.4,0.3
			c0.2,0.2,0.4,0.4,0.5,0.6c0.2,0.3,0.3,0.7,0.3,1c0,0.1,0,0.2,0,0.2c0,0.1,0,0.1,0,0.2c0,0.1,0,0.3,0,0.4c-0.1,0.4-0.2,0.7-0.5,1
			c-0.3,0.3-0.6,0.5-1,0.7c-0.3,0.1-0.7,0.1-1,0.1C81.9,305.5,81.5,305.3,81.1,304.8C81.2,304.9,81.2,304.9,81.1,304.8
			C81.1,304.8,81.1,304.8,81.1,304.8z M83.8,303.2c0-0.1,0-0.2,0-0.3c-0.1-0.3-0.2-0.5-0.4-0.7c-0.3-0.2-0.6-0.3-0.9-0.3
			c-0.1,0-0.3,0-0.4,0.1c-0.4,0.1-0.7,0.4-0.8,0.8c-0.2,0.4-0.1,0.8,0,1.1c0.1,0.2,0.2,0.4,0.4,0.6c0.4,0.3,0.8,0.3,1.2,0.2
			c0.2,0,0.3-0.1,0.4-0.2C83.6,304,83.8,303.7,83.8,303.2z"/>
		<path class="st3" d="M88.9,304.1c0.4,0,0.7,0,1.1,0c-0.3,0.7-0.8,1.2-1.6,1.4c-0.3,0.1-0.7,0.1-1,0c-0.5-0.1-0.9-0.3-1.3-0.7
			c-0.3-0.3-0.5-0.7-0.6-1.2c0-0.3-0.1-0.5,0-0.8c0.1-0.5,0.3-0.9,0.6-1.3c0.3-0.3,0.6-0.5,1-0.7c0.3-0.1,0.6-0.1,0.9-0.1
			c0.5,0,0.9,0.2,1.3,0.5c0.4,0.3,0.6,0.7,0.8,1.1c0.1,0.2,0.1,0.5,0.1,0.7c0,0.1,0,0.3,0,0.4c-1.2,0-2.4,0-3.6,0
			c0,0.4,0.3,0.9,0.8,1C88,304.8,88.6,304.6,88.9,304.1z M86.5,302.7c0.8,0,1.7,0,2.5,0c0,0,0,0,0,0c0,0,0,0,0-0.1
			c-0.1-0.3-0.3-0.5-0.5-0.7c-0.3-0.2-0.6-0.2-0.9-0.2c-0.4,0.1-0.7,0.2-0.9,0.5C86.6,302.4,86.6,302.5,86.5,302.7z"/>
		<path class="st3" d="M108,303.5c-1.2,0-2.4,0-3.6,0c0,0.2,0.1,0.4,0.1,0.5c0.2,0.3,0.5,0.5,0.8,0.6c0.3,0.1,0.5,0.1,0.8,0
			c0.3-0.1,0.5-0.2,0.6-0.5c0,0,0,0,0.1-0.1c0.4,0,0.7,0,1.1,0c-0.1,0.4-0.4,0.7-0.6,0.9c-0.3,0.3-0.7,0.5-1.1,0.5
			c-0.2,0.1-0.5,0-0.7,0c-0.3,0-0.6-0.1-0.9-0.3c-0.2-0.1-0.4-0.2-0.5-0.4c-0.3-0.4-0.6-0.8-0.7-1.3c-0.1-0.7,0-1.4,0.5-1.9
			c0.3-0.4,0.8-0.7,1.3-0.9c0.3-0.1,0.6-0.1,0.9,0c0.6,0.1,1.1,0.4,1.4,0.8c0.3,0.3,0.4,0.7,0.5,1.1c0,0.1,0,0.3,0,0.4
			C108.1,303.3,108.1,303.4,108,303.5z M104.4,302.7c0.8,0,1.7,0,2.5,0c0-0.1,0-0.3-0.1-0.3c-0.3-0.4-0.7-0.7-1.2-0.7
			c-0.2,0-0.4,0-0.6,0.1c-0.3,0.1-0.6,0.4-0.7,0.7C104.5,302.6,104.5,302.6,104.4,302.7z"/>
		<path class="st3" d="M92,300.9c0,0.2,0,0.4,0,0.5c0.2-0.2,0.3-0.3,0.5-0.4c0.2-0.1,0.3-0.1,0.5-0.2c0.2,0,0.4,0,0.6,0
			c0.4,0,0.8,0.2,1.2,0.5c0.2,0.2,0.3,0.5,0.4,0.7c0.1,0.2,0.1,0.5,0.1,0.8c0,0.8,0,1.6,0,2.5c0,0.1,0,0.1,0,0.2c-0.4,0-0.7,0-1.1,0
			c0-0.1,0-0.1,0-0.2c0-0.8,0-1.5,0-2.3c0-0.2,0-0.4-0.1-0.6c-0.1-0.3-0.4-0.6-0.7-0.5c-0.2,0-0.3,0-0.5,0c-0.3,0.1-0.5,0.3-0.6,0.6
			c0,0.1-0.1,0.2-0.1,0.3c-0.1,0.8,0,1.6,0,2.5c0,0.1,0,0.1,0,0.2c-0.4,0-0.7,0-1.1,0c0,0,0-0.1,0-0.1c0-1.4,0-2.8,0-4.2
			c0,0,0-0.1,0-0.1c0-0.1,0-0.1,0.1-0.1C91.4,300.9,91.7,300.9,92,300.9z"/>
		<path class="st3" d="M101.7,303.8c0.4,0,0.7,0,1.1,0c0,0.1-0.1,0.3-0.1,0.4c-0.1,0.2-0.3,0.5-0.4,0.6c-0.3,0.4-0.8,0.6-1.3,0.7
			c-0.5,0.1-1,0-1.5-0.1c-0.4-0.2-0.8-0.5-1-0.9c-0.2-0.3-0.3-0.6-0.3-0.9c0-0.2,0-0.3,0-0.5c0-0.3,0.1-0.6,0.2-0.9
			c0.2-0.4,0.4-0.7,0.8-0.9c0.3-0.2,0.5-0.3,0.8-0.4c0.3-0.1,0.6-0.1,0.9,0c0.3,0.1,0.5,0.1,0.8,0.2c0.5,0.3,0.9,0.7,1.1,1.3
			c0,0.1,0.1,0.2,0.1,0.3c-0.4,0-0.7,0-1.1,0c0-0.1-0.1-0.1-0.1-0.2c-0.2-0.3-0.4-0.5-0.8-0.6c-0.2,0-0.3-0.1-0.5,0
			c-0.1,0-0.3,0.1-0.4,0.1c-0.4,0.2-0.6,0.5-0.7,0.8c-0.1,0.4-0.1,0.8,0.1,1.1c0.2,0.4,0.5,0.6,0.9,0.6c0.3,0.1,0.5,0,0.8-0.1
			C101.3,304.3,101.5,304.1,101.7,303.8C101.7,303.9,101.7,303.8,101.7,303.8z"/>
		<path class="st3" d="M97.2,300.9c0,1.5,0,3,0,4.5c-0.2,0-0.4,0-0.5,0c-0.2,0-0.3,0-0.5,0c0,0,0-0.1,0-0.1c0-1.4,0-2.8,0-4.2
			c0,0,0,0,0-0.1c0-0.1,0-0.1,0.1-0.1c0.1,0,0.3,0,0.4,0C96.9,300.9,97.1,300.9,97.2,300.9z"/>
		<path class="st3" d="M96.2,300.3c0-0.3,0-0.6,0-0.9c0.2,0,0.8,0,1.1,0c0,0.3,0,0.6,0,0.9C96.9,300.3,96.5,300.3,96.2,300.3z"/>
		<linearGradient id="SVGID_1_" gradientUnits="userSpaceOnUse" x1="71.7714" y1="293.5245" x2="60.7898" y2="313.9503">
			<stop  offset="0" style="stop-color:#E15DD3"/>
			<stop  offset="1" style="stop-color:#8E34F7"/>
		</linearGradient>
		<circle class="st4" cx="69.6" cy="297.6" r="2"/>
		<linearGradient id="SVGID_2_" gradientUnits="userSpaceOnUse" x1="73.7905" y1="294.6101" x2="62.8089" y2="315.0358">
			<stop  offset="0" style="stop-color:#E15DD3"/>
			<stop  offset="1" style="stop-color:#8E34F7"/>
		</linearGradient>
		<circle class="st5" cx="69.6" cy="302.5" r="2"/>
		<linearGradient id="SVGID_3_" gradientUnits="userSpaceOnUse" x1="75.8095" y1="295.6956" x2="64.828" y2="316.1213">
			<stop  offset="0" style="stop-color:#E15DD3"/>
			<stop  offset="1" style="stop-color:#8E34F7"/>
		</linearGradient>
		<circle class="st6" cx="69.6" cy="307.3" r="2"/>
		<linearGradient id="SVGID_4_" gradientUnits="userSpaceOnUse" x1="78.1938" y1="296.9774" x2="67.2122" y2="317.4032">
			<stop  offset="0" style="stop-color:#E15DD3"/>
			<stop  offset="1" style="stop-color:#8E34F7"/>
		</linearGradient>
		<circle class="st7" cx="74" cy="304.8" r="2"/>
		<path class="st3" d="M109,300.5c0-0.5,0.4-0.9,0.9-0.9s0.9,0.4,0.9,0.9c0,0.5-0.4,0.9-0.9,0.9C109.4,301.4,109,301,109,300.5z
			 M110.7,300.5c0-0.4-0.3-0.8-0.8-0.8c-0.5,0-0.8,0.4-0.8,0.8c0,0.4,0.3,0.8,0.8,0.8C110.4,301.3,110.7,301,110.7,300.5z
			 M109.5,300h0.5c0.2,0,0.3,0,0.3,0.1c0.1,0.1,0.1,0.1,0.1,0.2c0,0.1-0.1,0.2-0.2,0.3l0.2,0.3h-0.3l-0.2-0.3h-0.1v0.3h-0.3V300z
			 M109.9,300.5c0.1,0,0.1,0,0.1-0.1c0-0.1-0.1-0.1-0.1-0.1h-0.2v0.2H109.9z"/>
	</g>
	<g id="Таблица" class="st1">
		<g id="Разделители">
			<g>
				<defs>
					<rect id="SVGID_5_" x="12.2" y="186.5" width="152.7" height="0.3"/>
				</defs>
				<use xlink:href="#SVGID_5_"  style="overflow:visible;fill-rule:evenodd;clip-rule:evenodd;fill:#ECECEC;"/>
				<clipPath id="SVGID_6_">
					<use xlink:href="#SVGID_5_"  style="overflow:visible;"/>
				</clipPath>
			</g>
			<g>
				<defs>
					<rect id="SVGID_7_" x="12.2" y="165.9" width="152.7" height="0.3"/>
				</defs>
				<use xlink:href="#SVGID_7_"  style="overflow:visible;fill-rule:evenodd;clip-rule:evenodd;fill:#ECECEC;"/>
				<clipPath id="SVGID_8_">
					<use xlink:href="#SVGID_7_"  style="overflow:visible;"/>
				</clipPath>
				<g class="st8">
					<defs>
						<rect id="SVGID_9_" x="-0.4" y="-118.1" width="180.1" height="316.3"/>
					</defs>
					<use xlink:href="#SVGID_9_"  style="overflow:visible;fill:#ECECEC;"/>
					<clipPath id="SVGID_10_">
						<use xlink:href="#SVGID_9_"  style="overflow:visible;"/>
					</clipPath>
				</g>
			</g>
			<g>
				<defs>
					<rect id="SVGID_11_" x="12.2" y="145.2" width="152.7" height="0.3"/>
				</defs>
				<use xlink:href="#SVGID_11_"  style="overflow:visible;fill-rule:evenodd;clip-rule:evenodd;fill:#ECECEC;"/>
				<clipPath id="SVGID_12_">
					<use xlink:href="#SVGID_11_"  style="overflow:visible;"/>
				</clipPath>
			</g>
			<g>
				<defs>
					<rect id="SVGID_13_" x="12.2" y="124.7" width="152.7" height="0.3"/>
				</defs>
				<use xlink:href="#SVGID_13_"  style="overflow:visible;fill-rule:evenodd;clip-rule:evenodd;fill:#ECECEC;"/>
				<clipPath id="SVGID_14_">
					<use xlink:href="#SVGID_13_"  style="overflow:visible;"/>
				</clipPath>
			</g>
			<g>
				<defs>
					<rect id="SVGID_15_" x="12.2" y="104" width="152.7" height="0.3"/>
				</defs>
				<use xlink:href="#SVGID_15_"  style="overflow:visible;fill-rule:evenodd;clip-rule:evenodd;fill:#ECECEC;"/>
				<clipPath id="SVGID_16_">
					<use xlink:href="#SVGID_15_"  style="overflow:visible;"/>
				</clipPath>
			</g>
			<g>
				<defs>
					<rect id="SVGID_17_" x="12.2" y="83.4" width="152.7" height="0.3"/>
				</defs>
				<use xlink:href="#SVGID_17_"  style="overflow:visible;fill-rule:evenodd;clip-rule:evenodd;fill:#ECECEC;"/>
				<clipPath id="SVGID_18_">
					<use xlink:href="#SVGID_17_"  style="overflow:visible;"/>
				</clipPath>
			</g>
		</g>
		<g id="BTC">
			<text transform="matrix(1 0 0 1 108.7785 73.6938)" class="st9 st10 st11">+3%</text>
			<text transform="matrix(1 0 0 1 97.9894 95.9877)" class="st9 st10 st11">+0,09%</text>
			<text transform="matrix(1 0 0 1 108.6135 116.414)" class="st9 st10 st11">+4%</text>
			<text transform="matrix(1 0 0 1 108.6691 137.3339)" class="st9 st10 st11">+2%</text>
			<text transform="matrix(1 0 0 1 110.426 157.101)" class="st9 st10 st11">+1%</text>
			<text transform="matrix(1 0 0 1 109.6574 178.5146)" class="st12 st10 st11">-5%</text>
		</g>
		<g id="USD">
			<text transform="matrix(1 0 0 1 151.8547 73.6948)" class="st9 st10 st11">+5%</text>
			<text transform="matrix(1 0 0 1 151.8527 96.3173)" class="st9 st10 st11">+2%</text>
			<text transform="matrix(1 0 0 1 151.8547 116.414)" class="st9 st10 st11">+8%</text>
			<text transform="matrix(1 0 0 1 151.8527 137.3339)" class="st9 st10 st11">+5%</text>
			<text transform="matrix(1 0 0 1 152.1847 157.4306)" class="st9 st10 st11">+3%</text>
			<text transform="matrix(1 0 0 1 153.172 178.5146)" class="st12 st10 st11">-8%</text>
		</g>
		<g id="Даты">
			<text transform="matrix(1 0 0 1 11.7702 73.0351)" class="st10 st11">30/10/2018</text>
			<text transform="matrix(1 0 0 1 11.7702 95.9877)" class="st10 st11">31/10/2018</text>
			<text transform="matrix(1 0 0 1 12.0998 116.7436)" class="st10 st11">01/11/2018</text>
			<text transform="matrix(1 0 0 1 11.7702 137.3339)" class="st10 st11">03/11/2018</text>
			<text transform="matrix(1 0 0 1 11.7702 157.9238)" class="st10 st11">04/11/2018</text>
			<text transform="matrix(1 0 0 1 11.7702 178.5146)" class="st10 st11">05/11/2018</text>
		</g>
		<g id="Заголовок">
			<text transform="matrix(1 0 0 1 107.6808 55.4394)" class="st13 st11">BTC</text>
			<text transform="matrix(1 0 0 1 150.1799 55.4394)" class="st13 st11">USD</text>
			<text transform="matrix(1 0 0 1 11.3293 55.4394)" class="st10 st11">Date</text>
		</g>
	</g>
	<g id="Header" class="st1">
		<linearGradient id="SVGID_19_" gradientUnits="userSpaceOnUse" x1="89.5166" y1="39.359" x2="89.5166" y2="0.1563">
			<stop  offset="0" style="stop-color:#E15DD3"/>
			<stop  offset="1" style="stop-color:#8E34F7"/>
		</linearGradient>
		<rect x="0" y="0.2" class="st14" width="179" height="39.2"/>
		<circle class="st15" cx="99.1" cy="13.2" r="0.4"/>
		<circle class="st16" cx="157.9" cy="7.5" r="0.4"/>
		<circle class="st16" cx="39.2" cy="16.5" r="0.4"/>
		<circle class="st15" cx="84.8" cy="27.4" r="0.4"/>
		<text transform="matrix(1 0 0 1 11.2819 24.9814)" class="st2 st17 st18">BTC+30%          USD+20% </text>
		<g>
			<defs>
				<rect id="SVGID_20_" x="110.8" y="-7.3" width="68.2" height="37.2"/>
			</defs>
			<clipPath id="SVGID_21_">
				<use xlink:href="#SVGID_20_"  style="overflow:visible;"/>
			</clipPath>
			
				<radialGradient id="SVGID_22_" cx="166.6544" cy="1.7886" r="33.0828" gradientTransform="matrix(1.0134 0 0 1 -1.4912 0)" gradientUnits="userSpaceOnUse">
				<stop  offset="0" style="stop-color:#E15DD3"/>
				<stop  offset="1" style="stop-color:#8E34F7"/>
			</radialGradient>
			<ellipse class="st19" cx="177" cy="13.6" rx="9.5" ry="9.4"/>
		</g>
	</g>
	<g id="График" class="st1">
		<g>
			<g>
				<defs>
					<line id="SVGID_23_" x1="179.8" y1="303.6" x2="179.8" y2="-12.6"/>
				</defs>
				<clipPath id="SVGID_24_">
					<use xlink:href="#SVGID_23_"  style="overflow:visible;"/>
				</clipPath>
			</g>
		</g>
		<g>
			<g>
				<defs>
					<rect id="SVGID_25_" x="18" y="237.9" width="147.2" height="0.5"/>
				</defs>
				<use xlink:href="#SVGID_25_"  style="overflow:visible;"/>
				<clipPath id="SVGID_26_">
					<use xlink:href="#SVGID_25_"  style="overflow:visible;"/>
				</clipPath>
			</g>
		</g>
		<g>
			<polyline class="st20" points="18,228 42.5,248.1 67,228.2 91.5,248.2 116,228.3 140.5,248.3 165.1,228.4 			"/>
		</g>
		<g>
			<polyline class="st21" points="17.9,233.8 42.4,253.8 67,233.8 91.6,253.8 116.1,233.8 140.7,253.8 165.2,233.8 			"/>
		</g>
		<text transform="matrix(0 -1 1 0 22.3298 275.4384)" class="st10 st22">2/2018 </text>
		<text transform="matrix(0 -1 1 0 14.7521 238.9814)" class="st10 st22">0</text>
		<text transform="matrix(0 -1 1 0 14.9035 205.8681)" class="st3 st10 st22">+10</text>
		<text transform="matrix(0 -1 1 0 15.09 275.3818)" class="st3 st10 st22">- 10</text>
		<text transform="matrix(0 -1 1 0 69.6379 275.6982)" class="st10 st22">04/2018</text>
		<text transform="matrix(0 -1 1 0 44.4631 275.6044)" class="st10 st22">04/2018</text>
		<text transform="matrix(0 -1 1 0 95.0549 275.6591)" class="st10 st22">04/2018</text>
		<text transform="matrix(0 -1 1 0 115.3527 275.6044)" class="st10 st22">04/2018</text>
		<text transform="matrix(0 -1 1 0 139.7326 275.5341)" class="st10 st22">04/2018</text>
		<text transform="matrix(0 -1 1 0 162.4504 275.6044)" class="st10 st22">04/2018</text>
		<g>
			<defs>
				<polygon id="SVGID_27_" points="17.5,201.3 18,201.3 18,275.4 17.5,275.4 17.5,201.3 				"/>
			</defs>
			<use xlink:href="#SVGID_27_"  style="overflow:visible;fill-rule:evenodd;clip-rule:evenodd;"/>
			<clipPath id="SVGID_28_">
				<use xlink:href="#SVGID_27_"  style="overflow:visible;"/>
			</clipPath>
		</g>
	</g>
</g>
<g id="Статистика_кривые">
	<g id="BG_1_">
		<rect x="0" y="0" class="st2" width="178.7" height="316"/>
	</g>
	<g id="Логотип_1_">
		<path class="st3" d="M81.1,304.7c0,0.2,0,0.4,0,0.6c-0.3,0-0.7,0-1,0c0-0.2-0.1-4.7,0-6c0.2,0,0.8,0,1.1,0c0,0.7,0,1.4,0,2.1
			c0.1,0,0.1,0,0.1-0.1c0.3-0.3,0.6-0.4,0.9-0.5c0.3-0.1,0.5-0.1,0.8,0c0.2,0,0.4,0.1,0.6,0.2c0.2,0.1,0.3,0.2,0.4,0.3
			c0.2,0.2,0.4,0.4,0.5,0.6c0.2,0.3,0.3,0.7,0.3,1c0,0.1,0,0.2,0,0.2c0,0.1,0,0.1,0,0.2c0,0.1,0,0.3,0,0.4c-0.1,0.4-0.2,0.7-0.5,1
			c-0.3,0.3-0.6,0.5-1,0.7c-0.3,0.1-0.7,0.1-1,0.1C81.8,305.3,81.4,305.1,81.1,304.7C81.1,304.7,81.1,304.7,81.1,304.7
			C81.1,304.7,81.1,304.7,81.1,304.7z M83.8,303c0-0.1,0-0.2,0-0.3c-0.1-0.3-0.2-0.5-0.4-0.7c-0.3-0.2-0.6-0.3-0.9-0.3
			c-0.1,0-0.3,0-0.4,0.1c-0.4,0.1-0.7,0.4-0.8,0.8c-0.2,0.4-0.1,0.8,0,1.1c0.1,0.2,0.2,0.4,0.4,0.6c0.4,0.3,0.8,0.3,1.2,0.2
			c0.2,0,0.3-0.1,0.4-0.2C83.6,303.9,83.8,303.5,83.8,303z"/>
		<path class="st3" d="M88.9,303.9c0.4,0,0.7,0,1.1,0c-0.3,0.7-0.8,1.2-1.6,1.4c-0.3,0.1-0.7,0.1-1,0c-0.5-0.1-0.9-0.3-1.3-0.7
			c-0.3-0.3-0.5-0.7-0.6-1.2c0-0.3-0.1-0.5,0-0.8c0.1-0.5,0.3-0.9,0.6-1.3c0.3-0.3,0.6-0.5,1-0.7c0.3-0.1,0.6-0.1,0.9-0.1
			c0.5,0,0.9,0.2,1.3,0.5c0.4,0.3,0.6,0.7,0.8,1.1c0.1,0.2,0.1,0.5,0.1,0.7c0,0.1,0,0.3,0,0.4c-1.2,0-2.4,0-3.6,0
			c0,0.4,0.3,0.9,0.8,1C87.9,304.6,88.5,304.4,88.9,303.9z M86.5,302.5c0.8,0,1.7,0,2.5,0c0,0,0,0,0,0c0,0,0,0,0-0.1
			c-0.1-0.3-0.3-0.5-0.5-0.7c-0.3-0.2-0.6-0.2-0.9-0.2c-0.4,0.1-0.7,0.2-0.9,0.5C86.6,302.2,86.5,302.4,86.5,302.5z"/>
		<path class="st3" d="M108,303.4c-1.2,0-2.4,0-3.6,0c0,0.2,0.1,0.4,0.1,0.5c0.2,0.3,0.5,0.5,0.8,0.6c0.3,0.1,0.5,0.1,0.8,0
			c0.3-0.1,0.5-0.2,0.6-0.5c0,0,0,0,0.1-0.1c0.4,0,0.7,0,1.1,0c-0.1,0.4-0.4,0.7-0.6,0.9c-0.3,0.3-0.7,0.5-1.1,0.5
			c-0.2,0.1-0.5,0-0.7,0c-0.3,0-0.6-0.1-0.9-0.3c-0.2-0.1-0.4-0.2-0.5-0.4c-0.3-0.4-0.6-0.8-0.7-1.3c-0.1-0.7,0-1.4,0.5-1.9
			c0.3-0.4,0.8-0.7,1.3-0.9c0.3-0.1,0.6-0.1,0.9,0c0.6,0.1,1.1,0.4,1.4,0.8c0.3,0.3,0.4,0.7,0.5,1.1c0,0.1,0,0.3,0,0.4
			C108,303.1,108,303.2,108,303.4z M104.4,302.5c0.8,0,1.7,0,2.5,0c0-0.1,0-0.3-0.1-0.3c-0.3-0.4-0.7-0.7-1.2-0.7
			c-0.2,0-0.4,0-0.6,0.1c-0.3,0.1-0.6,0.4-0.7,0.7C104.4,302.4,104.4,302.5,104.4,302.5z"/>
		<path class="st3" d="M91.9,300.7c0,0.2,0,0.4,0,0.5c0.2-0.2,0.3-0.3,0.5-0.4c0.2-0.1,0.3-0.1,0.5-0.2c0.2,0,0.4,0,0.6,0
			c0.4,0,0.8,0.2,1.2,0.5c0.2,0.2,0.3,0.5,0.4,0.7c0.1,0.2,0.1,0.5,0.1,0.8c0,0.8,0,1.6,0,2.5c0,0.1,0,0.1,0,0.2c-0.4,0-0.7,0-1.1,0
			c0-0.1,0-0.1,0-0.2c0-0.8,0-1.5,0-2.3c0-0.2,0-0.4-0.1-0.6c-0.1-0.3-0.4-0.6-0.7-0.5c-0.2,0-0.3,0-0.5,0c-0.3,0.1-0.5,0.3-0.6,0.6
			c0,0.1-0.1,0.2-0.1,0.3c-0.1,0.8,0,1.6,0,2.5c0,0.1,0,0.1,0,0.2c-0.4,0-0.7,0-1.1,0c0,0,0-0.1,0-0.1c0-1.4,0-2.8,0-4.2
			c0,0,0-0.1,0-0.1c0-0.1,0-0.1,0.1-0.1C91.3,300.7,91.6,300.7,91.9,300.7z"/>
		<path class="st3" d="M101.7,303.6c0.4,0,0.7,0,1.1,0c0,0.1-0.1,0.3-0.1,0.4c-0.1,0.2-0.3,0.5-0.4,0.6c-0.3,0.4-0.8,0.6-1.3,0.7
			c-0.5,0.1-1,0-1.5-0.1c-0.4-0.2-0.8-0.5-1-0.9c-0.2-0.3-0.3-0.6-0.3-0.9c0-0.2,0-0.3,0-0.5c0-0.3,0.1-0.6,0.2-0.9
			c0.2-0.4,0.4-0.7,0.8-0.9c0.3-0.2,0.5-0.3,0.8-0.4c0.3-0.1,0.6-0.1,0.9,0c0.3,0.1,0.5,0.1,0.8,0.2c0.5,0.3,0.9,0.7,1.1,1.3
			c0,0.1,0.1,0.2,0.1,0.3c-0.4,0-0.7,0-1.1,0c0-0.1-0.1-0.1-0.1-0.2c-0.2-0.3-0.4-0.5-0.8-0.6c-0.2,0-0.3-0.1-0.5,0
			c-0.1,0-0.3,0.1-0.4,0.1c-0.4,0.2-0.6,0.5-0.7,0.8c-0.1,0.4-0.1,0.8,0.1,1.1c0.2,0.4,0.5,0.6,0.9,0.6c0.3,0.1,0.5,0,0.8-0.1
			C101.3,304.2,101.5,304,101.7,303.6C101.6,303.7,101.7,303.7,101.7,303.6z"/>
		<path class="st3" d="M97.2,300.7c0,1.5,0,3,0,4.5c-0.2,0-0.4,0-0.5,0c-0.2,0-0.3,0-0.5,0c0,0,0-0.1,0-0.1c0-1.4,0-2.8,0-4.2
			c0,0,0,0,0-0.1c0-0.1,0-0.1,0.1-0.1c0.1,0,0.3,0,0.4,0C96.9,300.7,97,300.7,97.2,300.7z"/>
		<path class="st3" d="M96.1,300.1c0-0.3,0-0.6,0-0.9c0.2,0,0.8,0,1.1,0c0,0.3,0,0.6,0,0.9C96.8,300.1,96.5,300.1,96.1,300.1z"/>
		<linearGradient id="SVGID_29_" gradientUnits="userSpaceOnUse" x1="71.7297" y1="293.3624" x2="60.7481" y2="313.7881">
			<stop  offset="0" style="stop-color:#E15DD3"/>
			<stop  offset="1" style="stop-color:#8E34F7"/>
		</linearGradient>
		<circle class="st23" cx="69.5" cy="297.5" r="2"/>
		<linearGradient id="SVGID_30_" gradientUnits="userSpaceOnUse" x1="73.7488" y1="294.4479" x2="62.7672" y2="314.8736">
			<stop  offset="0" style="stop-color:#E15DD3"/>
			<stop  offset="1" style="stop-color:#8E34F7"/>
		</linearGradient>
		<circle class="st24" cx="69.5" cy="302.3" r="2"/>
		<linearGradient id="SVGID_31_" gradientUnits="userSpaceOnUse" x1="75.7679" y1="295.5334" x2="64.7863" y2="315.9591">
			<stop  offset="0" style="stop-color:#E15DD3"/>
			<stop  offset="1" style="stop-color:#8E34F7"/>
		</linearGradient>
		<circle class="st25" cx="69.5" cy="307.1" r="2"/>
		<linearGradient id="SVGID_32_" gradientUnits="userSpaceOnUse" x1="78.1521" y1="296.8153" x2="67.1706" y2="317.241">
			<stop  offset="0" style="stop-color:#E15DD3"/>
			<stop  offset="1" style="stop-color:#8E34F7"/>
		</linearGradient>
		<circle class="st26" cx="73.9" cy="304.7" r="2"/>
		<path class="st3" d="M108.9,300.4c0-0.5,0.4-0.9,0.9-0.9c0.5,0,0.9,0.4,0.9,0.9c0,0.5-0.4,0.9-0.9,0.9
			C109.3,301.3,108.9,300.9,108.9,300.4z M110.7,300.4c0-0.4-0.3-0.8-0.8-0.8c-0.5,0-0.8,0.4-0.8,0.8c0,0.4,0.3,0.8,0.8,0.8
			C110.3,301.2,110.7,300.8,110.7,300.4z M109.4,299.8h0.5c0.2,0,0.3,0,0.3,0.1c0.1,0.1,0.1,0.1,0.1,0.2c0,0.1-0.1,0.2-0.2,0.3
			l0.2,0.3H110l-0.2-0.3h-0.1v0.3h-0.3V299.8z M109.9,300.3c0.1,0,0.1,0,0.1-0.1c0-0.1-0.1-0.1-0.1-0.1h-0.2v0.2H109.9z"/>
	</g>
	<g id="Таблица_1_">
		<g id="Разделители_1_">
			<g>
				<defs>
					<rect id="SVGID_33_" x="12.1" y="186.4" width="152.7" height="0.3"/>
				</defs>
				<use xlink:href="#SVGID_33_"  style="overflow:visible;fill-rule:evenodd;clip-rule:evenodd;fill:#ECECEC;"/>
				<clipPath id="SVGID_34_">
					<use xlink:href="#SVGID_33_"  style="overflow:visible;"/>
				</clipPath>
			</g>
			<g>
				<defs>
					<rect id="SVGID_35_" x="12.1" y="165.8" width="152.7" height="0.3"/>
				</defs>
				<use xlink:href="#SVGID_35_"  style="overflow:visible;fill-rule:evenodd;clip-rule:evenodd;fill:#ECECEC;"/>
				<clipPath id="SVGID_36_">
					<use xlink:href="#SVGID_35_"  style="overflow:visible;"/>
				</clipPath>
				<g class="st27">
					<defs>
						<rect id="SVGID_37_" x="-0.4" y="-118.2" width="180.1" height="316.3"/>
					</defs>
					<use xlink:href="#SVGID_37_"  style="overflow:visible;fill:#ECECEC;"/>
					<clipPath id="SVGID_38_">
						<use xlink:href="#SVGID_37_"  style="overflow:visible;"/>
					</clipPath>
				</g>
			</g>
			<g>
				<defs>
					<rect id="SVGID_39_" x="12.1" y="145" width="152.7" height="0.3"/>
				</defs>
				<use xlink:href="#SVGID_39_"  style="overflow:visible;fill-rule:evenodd;clip-rule:evenodd;fill:#ECECEC;"/>
				<clipPath id="SVGID_40_">
					<use xlink:href="#SVGID_39_"  style="overflow:visible;"/>
				</clipPath>
			</g>
			<g>
				<defs>
					<rect id="SVGID_41_" x="12.1" y="124.6" width="152.7" height="0.3"/>
				</defs>
				<use xlink:href="#SVGID_41_"  style="overflow:visible;fill-rule:evenodd;clip-rule:evenodd;fill:#ECECEC;"/>
				<clipPath id="SVGID_42_">
					<use xlink:href="#SVGID_41_"  style="overflow:visible;"/>
				</clipPath>
			</g>
			<g>
				<defs>
					<rect id="SVGID_43_" x="12.1" y="103.8" width="152.7" height="0.3"/>
				</defs>
				<use xlink:href="#SVGID_43_"  style="overflow:visible;fill-rule:evenodd;clip-rule:evenodd;fill:#ECECEC;"/>
				<clipPath id="SVGID_44_">
					<use xlink:href="#SVGID_43_"  style="overflow:visible;"/>
				</clipPath>
			</g>
			<g>
				<defs>
					<rect id="SVGID_45_" x="12.1" y="83.2" width="152.7" height="0.3"/>
				</defs>
				<use xlink:href="#SVGID_45_"  style="overflow:visible;fill-rule:evenodd;clip-rule:evenodd;fill:#ECECEC;"/>
				<clipPath id="SVGID_46_">
					<use xlink:href="#SVGID_45_"  style="overflow:visible;"/>
				</clipPath>
			</g>
		</g>
		<g id="BTC_1_">
			<g>
				<path class="st9" d="M110.8,71.3v1.5h-0.4v-1.5h-1.4v-0.4h1.4v-1.5h0.4v1.5h1.4v0.4H110.8z"/>
				<path class="st9" d="M112.6,72.8l0.4-0.4c0.3,0.4,0.8,0.6,1.4,0.6c0.7,0,1.1-0.3,1.1-0.9c0-0.6-0.5-0.9-1.2-0.9
					c-0.2,0-0.4,0-0.5,0v-0.6c0.1,0,0.3,0,0.5,0c0.6,0,1.1-0.2,1.1-0.8c0-0.5-0.5-0.8-1.1-0.8c-0.5,0-0.9,0.2-1.3,0.6l-0.3-0.4
					c0.3-0.4,0.9-0.7,1.7-0.7c0.9,0,1.6,0.5,1.6,1.3c0,0.7-0.6,1-1,1.1c0.4,0,1.1,0.4,1.1,1.2c0,0.8-0.6,1.4-1.7,1.4
					C113.5,73.6,112.9,73.3,112.6,72.8z"/>
				<path class="st9" d="M116.6,69.8c0-0.7,0.5-1.2,1.2-1.2c0.7,0,1.2,0.5,1.2,1.2c0,0.7-0.5,1.2-1.2,1.2
					C117.1,71,116.6,70.5,116.6,69.8z M118.5,69.8c0-0.5-0.3-0.8-0.7-0.8c-0.4,0-0.7,0.4-0.7,0.8c0,0.5,0.3,0.8,0.7,0.8
					C118.2,70.6,118.5,70.3,118.5,69.8z M117.3,73.5l3.1-4.8h0.4l-3.1,4.8H117.3z M119.2,72.4c0-0.7,0.5-1.2,1.2-1.2
					c0.7,0,1.2,0.5,1.2,1.2c0,0.7-0.5,1.2-1.2,1.2C119.6,73.6,119.2,73.1,119.2,72.4z M121.1,72.4c0-0.5-0.3-0.8-0.7-0.8
					s-0.7,0.4-0.7,0.8c0,0.5,0.3,0.8,0.7,0.8S121.1,72.9,121.1,72.4z"/>
			</g>
			<g>
				<path class="st9" d="M100,93.6v1.5h-0.4v-1.5h-1.4v-0.4h1.4v-1.5h0.4v1.5h1.4v0.4H100z"/>
				<path class="st9" d="M101.9,93.4c0-1.2,0.5-2.5,1.9-2.5c1.3,0,1.9,1.3,1.9,2.5c0,1.2-0.5,2.5-1.9,2.5
					C102.5,95.9,101.9,94.6,101.9,93.4z M105,93.4c0-1-0.3-2-1.2-2c-0.9,0-1.2,1-1.2,2c0,1,0.3,2,1.2,2
					C104.7,95.4,105,94.4,105,93.4z"/>
				<path class="st9" d="M106.7,96.7l-0.3-0.2c0.2-0.2,0.4-0.4,0.5-0.7c0,0-0.1,0-0.1,0c-0.2,0-0.3-0.2-0.3-0.4
					c0-0.2,0.2-0.4,0.4-0.4c0.2,0,0.5,0.2,0.5,0.6C107.3,96.1,107,96.5,106.7,96.7z"/>
				<path class="st9" d="M108.1,93.4c0-1.2,0.5-2.5,1.9-2.5c1.3,0,1.9,1.3,1.9,2.5c0,1.2-0.5,2.5-1.9,2.5
					C108.6,95.9,108.1,94.6,108.1,93.4z M111.1,93.4c0-1-0.3-2-1.2-2c-0.9,0-1.2,1-1.2,2c0,1,0.3,2,1.2,2
					C110.8,95.4,111.1,94.4,111.1,93.4z"/>
				<path class="st9" d="M112.7,95.3l0.3-0.5c0.2,0.3,0.5,0.5,1,0.5c1,0,1.4-1,1.4-1.9c0-0.1,0-0.1,0-0.2c-0.2,0.3-0.7,0.8-1.4,0.8
					c-0.9,0-1.6-0.5-1.6-1.5c0-0.8,0.6-1.6,1.7-1.6c1.4,0,1.9,1.2,1.9,2.5c0,1.3-0.6,2.5-2,2.5C113.5,95.9,113.1,95.7,112.7,95.3z
					 M115.4,92.8c-0.1-0.6-0.4-1.4-1.2-1.4c-0.7,0-1.1,0.6-1.1,1c0,0.7,0.5,1,1.1,1C114.7,93.5,115.2,93.2,115.4,92.8z"/>
				<path class="st9" d="M116.7,92.1c0-0.7,0.5-1.2,1.2-1.2c0.7,0,1.2,0.5,1.2,1.2c0,0.7-0.5,1.2-1.2,1.2
					C117.1,93.3,116.7,92.8,116.7,92.1z M118.6,92.1c0-0.5-0.3-0.8-0.7-0.8c-0.4,0-0.7,0.4-0.7,0.8c0,0.5,0.3,0.8,0.7,0.8
					C118.3,92.9,118.6,92.6,118.6,92.1z M117.4,95.8l3.1-4.8h0.4l-3.1,4.8H117.4z M119.2,94.7c0-0.7,0.5-1.2,1.2-1.2
					c0.7,0,1.2,0.5,1.2,1.2c0,0.7-0.5,1.2-1.2,1.2C119.7,95.9,119.2,95.4,119.2,94.7z M121.1,94.7c0-0.5-0.3-0.8-0.7-0.8
					s-0.7,0.4-0.7,0.8c0,0.5,0.3,0.8,0.7,0.8S121.1,95.2,121.1,94.7z"/>
			</g>
			<g>
				<path class="st9" d="M110.6,114v1.5h-0.4V114h-1.4v-0.4h1.4v-1.5h0.4v1.5h1.4v0.4H110.6z"/>
				<path class="st9" d="M114.7,116.3V115h-2.3v-0.5l2.1-3.1h0.8v3.1h0.7v0.5h-0.7v1.2H114.7z M114.7,112l-1.7,2.5h1.7V112z"/>
				<path class="st9" d="M116.5,112.5c0-0.7,0.5-1.2,1.2-1.2c0.7,0,1.2,0.5,1.2,1.2c0,0.7-0.5,1.2-1.2,1.2
					C116.9,113.7,116.5,113.2,116.5,112.5z M118.4,112.5c0-0.5-0.3-0.8-0.7-0.8c-0.4,0-0.7,0.4-0.7,0.8c0,0.5,0.3,0.8,0.7,0.8
					C118.1,113.4,118.4,113,118.4,112.5z M117.2,116.3l3.1-4.8h0.4l-3.1,4.8H117.2z M119,115.2c0-0.7,0.5-1.2,1.2-1.2
					c0.7,0,1.2,0.5,1.2,1.2c0,0.7-0.5,1.2-1.2,1.2C119.5,116.3,119,115.8,119,115.2z M120.9,115.2c0-0.5-0.3-0.8-0.7-0.8
					s-0.7,0.4-0.7,0.8c0,0.5,0.3,0.8,0.7,0.8S120.9,115.6,120.9,115.2z"/>
			</g>
			<g>
				<path class="st9" d="M110.6,134.9v1.5h-0.4v-1.5h-1.4v-0.4h1.4V133h0.4v1.5h1.4v0.4H110.6z"/>
				<path class="st9" d="M112.6,137.2v-0.5c1.7-1.4,2.7-2.2,2.7-3c0-0.6-0.5-0.9-1-0.9c-0.6,0-1,0.2-1.3,0.6l-0.4-0.4
					c0.4-0.5,1-0.8,1.7-0.8c0.8,0,1.6,0.5,1.6,1.4c0,1-1,1.9-2.4,3h2.4v0.5H112.6z"/>
				<path class="st9" d="M116.8,133.5c0-0.7,0.5-1.2,1.2-1.2c0.7,0,1.2,0.5,1.2,1.2c0,0.7-0.5,1.2-1.2,1.2
					C117.2,134.6,116.8,134.1,116.8,133.5z M118.7,133.5c0-0.5-0.3-0.8-0.7-0.8c-0.4,0-0.7,0.4-0.7,0.8c0,0.5,0.3,0.8,0.7,0.8
					C118.3,134.3,118.7,133.9,118.7,133.5z M117.5,137.2l3.1-4.8h0.4l-3.1,4.8H117.5z M119.3,136.1c0-0.7,0.5-1.2,1.2-1.2
					c0.7,0,1.2,0.5,1.2,1.2c0,0.7-0.5,1.2-1.2,1.2C119.7,137.3,119.3,136.8,119.3,136.1z M121.2,136.1c0-0.5-0.3-0.8-0.7-0.8
					s-0.7,0.4-0.7,0.8c0,0.5,0.3,0.8,0.7,0.8S121.2,136.5,121.2,136.1z"/>
			</g>
			<g>
				<path class="st9" d="M112.4,154.7v1.5H112v-1.5h-1.4v-0.4h1.4v-1.5h0.4v1.5h1.4v0.4H112.4z"/>
				<path class="st9" d="M115.3,156.9v-4l-0.8,0.8l-0.4-0.4l1.2-1.2h0.5v4.8H115.3z"/>
				<path class="st9" d="M116.7,153.2c0-0.7,0.5-1.2,1.2-1.2c0.7,0,1.2,0.5,1.2,1.2c0,0.7-0.5,1.2-1.2,1.2
					C117.2,154.4,116.7,153.9,116.7,153.2z M118.6,153.2c0-0.5-0.3-0.8-0.7-0.8c-0.4,0-0.7,0.4-0.7,0.8c0,0.5,0.3,0.8,0.7,0.8
					C118.3,154,118.6,153.7,118.6,153.2z M117.4,156.9l3.1-4.8h0.4l-3.1,4.8H117.4z M119.2,155.8c0-0.7,0.5-1.2,1.2-1.2
					c0.7,0,1.2,0.5,1.2,1.2c0,0.7-0.5,1.2-1.2,1.2C119.7,157,119.2,156.5,119.2,155.8z M121.1,155.8c0-0.5-0.3-0.8-0.7-0.8
					s-0.7,0.4-0.7,0.8c0,0.5,0.3,0.8,0.7,0.8S121.1,156.3,121.1,155.8z"/>
			</g>
			<g>
				<path class="st12" d="M109.8,176.8v-0.5h1.7v0.5H109.8z"/>
				<path class="st12" d="M112.3,177.7l0.4-0.4c0.3,0.4,0.7,0.6,1.3,0.6c0.7,0,1.1-0.5,1.1-1c0-0.6-0.5-1-1.1-1
					c-0.4,0-0.8,0.1-1.1,0.5l-0.4-0.2v-2.6h3v0.5H113v1.7c0.2-0.2,0.6-0.4,1.1-0.4c0.8,0,1.5,0.6,1.5,1.5c0,1-0.7,1.6-1.7,1.6
					C113.2,178.4,112.6,178.1,112.3,177.7z"/>
				<path class="st12" d="M116.3,174.6c0-0.7,0.5-1.2,1.2-1.2c0.7,0,1.2,0.5,1.2,1.2c0,0.7-0.5,1.2-1.2,1.2
					C116.8,175.8,116.3,175.3,116.3,174.6z M118.2,174.6c0-0.5-0.3-0.8-0.7-0.8c-0.4,0-0.7,0.4-0.7,0.8c0,0.5,0.3,0.8,0.7,0.8
					C117.9,175.5,118.2,175.1,118.2,174.6z M117,178.4l3.1-4.8h0.4l-3.1,4.8H117z M118.8,177.3c0-0.7,0.5-1.2,1.2-1.2
					c0.7,0,1.2,0.5,1.2,1.2c0,0.7-0.5,1.2-1.2,1.2C119.3,178.4,118.8,177.9,118.8,177.3z M120.7,177.3c0-0.5-0.3-0.8-0.7-0.8
					s-0.7,0.4-0.7,0.8c0,0.5,0.3,0.8,0.7,0.8S120.7,177.7,120.7,177.3z"/>
			</g>
		</g>
		<g id="USD_1_">
			<g>
				<path class="st9" d="M153.8,71.3v1.5h-0.4v-1.5H152v-0.4h1.4v-1.5h0.4v1.5h1.4v0.4H153.8z"/>
				<path class="st9" d="M155.9,72.8l0.4-0.4c0.3,0.4,0.7,0.6,1.3,0.6c0.7,0,1.1-0.5,1.1-1c0-0.6-0.5-1-1.1-1
					c-0.4,0-0.8,0.1-1.1,0.5l-0.4-0.2v-2.6h3v0.5h-2.4v1.7c0.2-0.2,0.6-0.4,1.1-0.4c0.8,0,1.5,0.6,1.5,1.5c0,1-0.7,1.6-1.7,1.6
					C156.8,73.6,156.3,73.3,155.9,72.8z"/>
				<path class="st9" d="M160,69.8c0-0.7,0.5-1.2,1.2-1.2c0.7,0,1.2,0.5,1.2,1.2c0,0.7-0.5,1.2-1.2,1.2C160.4,71,160,70.5,160,69.8z
					 M161.9,69.8c0-0.5-0.3-0.8-0.7-0.8c-0.4,0-0.7,0.4-0.7,0.8c0,0.5,0.3,0.8,0.7,0.8C161.5,70.6,161.9,70.3,161.9,69.8z
					 M160.7,73.5l3.1-4.8h0.4l-3.1,4.8H160.7z M162.5,72.4c0-0.7,0.5-1.2,1.2-1.2c0.7,0,1.2,0.5,1.2,1.2c0,0.7-0.5,1.2-1.2,1.2
					C162.9,73.6,162.5,73.1,162.5,72.4z M164.4,72.4c0-0.5-0.3-0.8-0.7-0.8s-0.7,0.4-0.7,0.8c0,0.5,0.3,0.8,0.7,0.8
					S164.4,72.9,164.4,72.4z"/>
			</g>
			<g>
				<path class="st9" d="M153.8,93.9v1.5h-0.4v-1.5H152v-0.4h1.4V92h0.4v1.5h1.4v0.4H153.8z"/>
				<path class="st9" d="M155.8,96.2v-0.5c1.7-1.4,2.7-2.2,2.7-3c0-0.6-0.5-0.9-1-0.9c-0.6,0-1,0.2-1.3,0.6l-0.4-0.4
					c0.4-0.5,1-0.8,1.7-0.8c0.8,0,1.6,0.5,1.6,1.4c0,1-1,1.9-2.4,3h2.4v0.5H155.8z"/>
				<path class="st9" d="M159.9,92.4c0-0.7,0.5-1.2,1.2-1.2c0.7,0,1.2,0.5,1.2,1.2c0,0.7-0.5,1.2-1.2,1.2
					C160.4,93.6,159.9,93.1,159.9,92.4z M161.8,92.4c0-0.5-0.3-0.8-0.7-0.8c-0.4,0-0.7,0.4-0.7,0.8c0,0.5,0.3,0.8,0.7,0.8
					C161.5,93.3,161.8,92.9,161.8,92.4z M160.6,96.2l3.1-4.8h0.4l-3.1,4.8H160.6z M162.5,95.1c0-0.7,0.5-1.2,1.2-1.2
					c0.7,0,1.2,0.5,1.2,1.2c0,0.7-0.5,1.2-1.2,1.2C162.9,96.2,162.5,95.7,162.5,95.1z M164.4,95.1c0-0.5-0.3-0.8-0.7-0.8
					s-0.7,0.4-0.7,0.8c0,0.5,0.3,0.8,0.7,0.8S164.4,95.5,164.4,95.1z"/>
			</g>
			<g>
				<path class="st9" d="M153.8,114v1.5h-0.4V114H152v-0.4h1.4v-1.5h0.4v1.5h1.4v0.4H153.8z"/>
				<path class="st9" d="M155.8,115c0-0.6,0.6-1.1,1.2-1.3c-0.6-0.2-1.1-0.5-1.1-1.2c0-0.9,0.8-1.3,1.7-1.3c0.8,0,1.7,0.4,1.7,1.3
					c0,0.6-0.5,1-1.1,1.2c0.6,0.2,1.2,0.6,1.2,1.3c0,0.8-0.8,1.3-1.7,1.3C156.6,116.3,155.8,115.9,155.8,115z M158.7,115
					c0-0.6-0.8-0.9-1.1-0.9c-0.3,0-1.1,0.3-1.1,0.9c0,0.5,0.5,0.8,1.1,0.8C158.1,115.8,158.7,115.5,158.7,115z M158.6,112.7
					c0-0.5-0.5-0.8-1.1-0.8c-0.6,0-1.1,0.3-1.1,0.8c0,0.6,0.8,0.8,1.1,0.8C157.8,113.5,158.6,113.3,158.6,112.7z"/>
				<path class="st9" d="M159.9,112.5c0-0.7,0.5-1.2,1.2-1.2c0.7,0,1.2,0.5,1.2,1.2c0,0.7-0.5,1.2-1.2,1.2
					C160.4,113.7,159.9,113.2,159.9,112.5z M161.8,112.5c0-0.5-0.3-0.8-0.7-0.8c-0.4,0-0.7,0.4-0.7,0.8c0,0.5,0.3,0.8,0.7,0.8
					C161.5,113.4,161.8,113,161.8,112.5z M160.6,116.3l3.1-4.8h0.4l-3.1,4.8H160.6z M162.4,115.2c0-0.7,0.5-1.2,1.2-1.2
					c0.7,0,1.2,0.5,1.2,1.2c0,0.7-0.5,1.2-1.2,1.2C162.9,116.3,162.4,115.8,162.4,115.2z M164.3,115.2c0-0.5-0.3-0.8-0.7-0.8
					s-0.7,0.4-0.7,0.8c0,0.5,0.3,0.8,0.7,0.8S164.3,115.6,164.3,115.2z"/>
			</g>
			<g>
				<path class="st9" d="M153.8,134.9v1.5h-0.4v-1.5H152v-0.4h1.4V133h0.4v1.5h1.4v0.4H153.8z"/>
				<path class="st9" d="M155.9,136.5l0.4-0.4c0.3,0.4,0.7,0.6,1.3,0.6c0.7,0,1.1-0.5,1.1-1c0-0.6-0.5-1-1.1-1
					c-0.4,0-0.8,0.1-1.1,0.5l-0.4-0.2v-2.6h3v0.5h-2.4v1.7c0.2-0.2,0.6-0.4,1.1-0.4c0.8,0,1.5,0.6,1.5,1.5c0,1-0.7,1.6-1.7,1.6
					C156.8,137.3,156.3,137,155.9,136.5z"/>
				<path class="st9" d="M159.9,133.5c0-0.7,0.5-1.2,1.2-1.2c0.7,0,1.2,0.5,1.2,1.2c0,0.7-0.5,1.2-1.2,1.2
					C160.4,134.6,159.9,134.1,159.9,133.5z M161.9,133.5c0-0.5-0.3-0.8-0.7-0.8c-0.4,0-0.7,0.4-0.7,0.8c0,0.5,0.3,0.8,0.7,0.8
					C161.5,134.3,161.9,133.9,161.9,133.5z M160.7,137.2l3.1-4.8h0.4l-3.1,4.8H160.7z M162.5,136.1c0-0.7,0.5-1.2,1.2-1.2
					c0.7,0,1.2,0.5,1.2,1.2c0,0.7-0.5,1.2-1.2,1.2C162.9,137.3,162.5,136.8,162.5,136.1z M164.4,136.1c0-0.5-0.3-0.8-0.7-0.8
					s-0.7,0.4-0.7,0.8c0,0.5,0.3,0.8,0.7,0.8S164.4,136.5,164.4,136.1z"/>
			</g>
			<g>
				<path class="st9" d="M154.2,155v1.5h-0.4V155h-1.4v-0.4h1.4v-1.5h0.4v1.5h1.4v0.4H154.2z"/>
				<path class="st9" d="M156,156.6l0.4-0.4c0.3,0.4,0.8,0.6,1.4,0.6c0.7,0,1.1-0.3,1.1-0.9c0-0.6-0.5-0.9-1.2-0.9
					c-0.2,0-0.4,0-0.5,0v-0.6c0.1,0,0.3,0,0.5,0c0.6,0,1.1-0.2,1.1-0.8c0-0.5-0.5-0.8-1.1-0.8c-0.5,0-0.9,0.2-1.3,0.6l-0.3-0.4
					c0.3-0.4,0.9-0.7,1.7-0.7c0.9,0,1.6,0.5,1.6,1.3c0,0.7-0.6,1-1,1.1c0.4,0,1.1,0.4,1.1,1.2c0,0.8-0.6,1.4-1.7,1.4
					C156.9,157.4,156.3,157,156,156.6z"/>
				<path class="st9" d="M160,153.6c0-0.7,0.5-1.2,1.2-1.2c0.7,0,1.2,0.5,1.2,1.2c0,0.7-0.5,1.2-1.2,1.2
					C160.5,154.7,160,154.2,160,153.6z M161.9,153.6c0-0.5-0.3-0.8-0.7-0.8c-0.4,0-0.7,0.4-0.7,0.8c0,0.5,0.3,0.8,0.7,0.8
					C161.6,154.4,161.9,154,161.9,153.6z M160.7,157.3l3.1-4.8h0.4l-3.1,4.8H160.7z M162.6,156.2c0-0.7,0.5-1.2,1.2-1.2
					c0.7,0,1.2,0.5,1.2,1.2c0,0.7-0.5,1.2-1.2,1.2C163,157.4,162.6,156.8,162.6,156.2z M164.5,156.2c0-0.5-0.3-0.8-0.7-0.8
					s-0.7,0.4-0.7,0.8c0,0.5,0.3,0.8,0.7,0.8S164.5,156.6,164.5,156.2z"/>
			</g>
			<g>
				<path class="st12" d="M153.3,176.8v-0.5h1.7v0.5H153.3z"/>
				<path class="st12" d="M155.7,177.1c0-0.6,0.6-1.1,1.2-1.3c-0.6-0.2-1.1-0.5-1.1-1.2c0-0.9,0.8-1.3,1.7-1.3
					c0.8,0,1.7,0.4,1.7,1.3c0,0.6-0.5,1-1.1,1.2c0.6,0.2,1.2,0.6,1.2,1.3c0,0.8-0.8,1.3-1.7,1.3C156.5,178.4,155.7,178,155.7,177.1z
					 M158.5,177.1c0-0.6-0.8-0.9-1.1-0.9c-0.3,0-1.1,0.3-1.1,0.9c0,0.5,0.5,0.8,1.1,0.8C158,177.9,158.5,177.6,158.5,177.1z
					 M158.5,174.8c0-0.5-0.5-0.8-1.1-0.8c-0.6,0-1.1,0.3-1.1,0.8c0,0.6,0.8,0.8,1.1,0.8C157.7,175.6,158.5,175.4,158.5,174.8z"/>
				<path class="st12" d="M159.8,174.6c0-0.7,0.5-1.2,1.2-1.2c0.7,0,1.2,0.5,1.2,1.2c0,0.7-0.5,1.2-1.2,1.2
					C160.2,175.8,159.8,175.3,159.8,174.6z M161.7,174.6c0-0.5-0.3-0.8-0.7-0.8c-0.4,0-0.7,0.4-0.7,0.8c0,0.5,0.3,0.8,0.7,0.8
					C161.4,175.5,161.7,175.1,161.7,174.6z M160.5,178.4l3.1-4.8h0.4l-3.1,4.8H160.5z M162.3,177.3c0-0.7,0.5-1.2,1.2-1.2
					c0.7,0,1.2,0.5,1.2,1.2c0,0.7-0.5,1.2-1.2,1.2C162.8,178.4,162.3,177.9,162.3,177.3z M164.2,177.3c0-0.5-0.3-0.8-0.7-0.8
					s-0.7,0.4-0.7,0.8c0,0.5,0.3,0.8,0.7,0.8S164.2,177.7,164.2,177.3z"/>
			</g>
		</g>
		<g id="Даты_1_">
			<g>
				<path d="M11.9,72.2l0.4-0.4c0.3,0.4,0.8,0.6,1.4,0.6c0.7,0,1.1-0.3,1.1-0.9c0-0.6-0.5-0.9-1.2-0.9c-0.2,0-0.4,0-0.5,0v-0.6
					c0.1,0,0.3,0,0.5,0c0.6,0,1.1-0.2,1.1-0.8c0-0.5-0.5-0.8-1.1-0.8c-0.5,0-0.9,0.2-1.3,0.6L12,68.7c0.3-0.4,0.9-0.7,1.7-0.7
					c0.9,0,1.6,0.5,1.6,1.3c0,0.7-0.6,1-1,1.1c0.4,0,1.1,0.4,1.1,1.2c0,0.8-0.6,1.4-1.7,1.4C12.8,73,12.2,72.6,11.9,72.2z"/>
				<path d="M16.1,70.5c0-1.2,0.5-2.5,1.9-2.5c1.3,0,1.9,1.3,1.9,2.5c0,1.2-0.5,2.5-1.9,2.5C16.7,73,16.1,71.6,16.1,70.5z
					 M19.2,70.5c0-1-0.3-2-1.2-2s-1.2,1-1.2,2c0,1,0.3,2,1.2,2S19.2,71.4,19.2,70.5z"/>
				<path d="M20.2,73l1.7-5.1h0.4L20.6,73H20.2z"/>
				<path d="M23.7,72.9v-4l-0.8,0.8l-0.4-0.4l1.2-1.2h0.5v4.8H23.7z"/>
				<path d="M25.2,70.5c0-1.2,0.5-2.5,1.9-2.5c1.3,0,1.9,1.3,1.9,2.5c0,1.2-0.5,2.5-1.9,2.5C25.7,73,25.2,71.6,25.2,70.5z
					 M28.3,70.5c0-1-0.3-2-1.2-2s-1.2,1-1.2,2c0,1,0.3,2,1.2,2S28.3,71.4,28.3,70.5z"/>
				<path d="M29.3,73l1.7-5.1h0.4L29.7,73H29.3z"/>
				<path d="M31.8,72.9v-0.5c1.7-1.4,2.7-2.2,2.7-3c0-0.6-0.5-0.9-1-0.9c-0.6,0-1,0.2-1.3,0.6l-0.4-0.4c0.4-0.5,1-0.8,1.7-0.8
					c0.8,0,1.6,0.5,1.6,1.4c0,1-1,1.9-2.4,3h2.4v0.5H31.8z"/>
				<path d="M36.1,70.5c0-1.2,0.5-2.5,1.9-2.5c1.3,0,1.9,1.3,1.9,2.5c0,1.2-0.5,2.5-1.9,2.5C36.6,73,36.1,71.6,36.1,70.5z
					 M39.2,70.5c0-1-0.3-2-1.2-2s-1.2,1-1.2,2c0,1,0.3,2,1.2,2S39.2,71.4,39.2,70.5z"/>
				<path d="M41.4,72.9v-4l-0.8,0.8l-0.4-0.4l1.2-1.2H42v4.8H41.4z"/>
				<path d="M43,71.6c0-0.6,0.6-1.1,1.2-1.3c-0.6-0.2-1.1-0.5-1.1-1.2c0-0.9,0.8-1.3,1.7-1.3c0.8,0,1.7,0.4,1.7,1.3
					c0,0.6-0.5,1-1.1,1.2c0.6,0.2,1.2,0.6,1.2,1.3c0,0.8-0.8,1.3-1.7,1.3C43.8,73,43,72.5,43,71.6z M45.8,71.6
					c0-0.6-0.8-0.9-1.1-0.9c-0.3,0-1.1,0.3-1.1,0.9c0,0.5,0.5,0.8,1.1,0.8C45.3,72.4,45.8,72.1,45.8,71.6z M45.8,69.3
					c0-0.5-0.5-0.8-1.1-0.8c-0.6,0-1.1,0.3-1.1,0.8c0,0.6,0.8,0.8,1.1,0.8C45,70.1,45.8,69.9,45.8,69.3z"/>
			</g>
			<g>
				<path d="M11.9,95.1l0.4-0.4c0.3,0.4,0.8,0.6,1.4,0.6c0.7,0,1.1-0.3,1.1-0.9c0-0.6-0.5-0.9-1.2-0.9c-0.2,0-0.4,0-0.5,0v-0.6
					c0.1,0,0.3,0,0.5,0c0.6,0,1.1-0.2,1.1-0.8c0-0.5-0.5-0.8-1.1-0.8c-0.5,0-0.9,0.2-1.3,0.6L12,91.7c0.3-0.4,0.9-0.7,1.7-0.7
					c0.9,0,1.6,0.5,1.6,1.3c0,0.7-0.6,1-1,1.1c0.4,0,1.1,0.4,1.1,1.2c0,0.8-0.6,1.4-1.7,1.4C12.8,95.9,12.2,95.5,11.9,95.1z"/>
				<path d="M17.1,95.8v-4l-0.8,0.8l-0.4-0.4l1.2-1.2h0.5v4.8H17.1z"/>
				<path d="M18.2,96l1.7-5.1h0.4L18.7,96H18.2z"/>
				<path d="M21.7,95.8v-4l-0.8,0.8l-0.4-0.4l1.2-1.2h0.5v4.8H21.7z"/>
				<path d="M23.2,93.4c0-1.2,0.5-2.5,1.9-2.5c1.3,0,1.9,1.3,1.9,2.5c0,1.2-0.5,2.5-1.9,2.5C23.7,95.9,23.2,94.6,23.2,93.4z
					 M26.3,93.4c0-1-0.3-2-1.2-2s-1.2,1-1.2,2c0,1,0.3,2,1.2,2S26.3,94.4,26.3,93.4z"/>
				<path d="M27.3,96l1.7-5.1h0.4L27.7,96H27.3z"/>
				<path d="M29.8,95.8v-0.5c1.7-1.4,2.7-2.2,2.7-3c0-0.6-0.5-0.9-1-0.9c-0.6,0-1,0.2-1.3,0.6l-0.4-0.4c0.4-0.5,1-0.8,1.7-0.8
					c0.8,0,1.6,0.5,1.6,1.4c0,1-1,1.9-2.4,3h2.4v0.5H29.8z"/>
				<path d="M34.1,93.4c0-1.2,0.5-2.5,1.9-2.5c1.3,0,1.9,1.3,1.9,2.5c0,1.2-0.5,2.5-1.9,2.5C34.6,95.9,34.1,94.6,34.1,93.4z
					 M37.2,93.4c0-1-0.3-2-1.2-2s-1.2,1-1.2,2c0,1,0.3,2,1.2,2S37.2,94.4,37.2,93.4z"/>
				<path d="M39.5,95.8v-4l-0.8,0.8l-0.4-0.4l1.2-1.2h0.5v4.8H39.5z"/>
				<path d="M41,94.6c0-0.6,0.6-1.1,1.2-1.3c-0.6-0.2-1.1-0.5-1.1-1.2c0-0.9,0.8-1.3,1.7-1.3c0.8,0,1.7,0.4,1.7,1.3
					c0,0.6-0.5,1-1.1,1.2c0.6,0.2,1.2,0.6,1.2,1.3c0,0.8-0.8,1.3-1.7,1.3C41.8,95.9,41,95.4,41,94.6z M43.9,94.5
					c0-0.6-0.8-0.9-1.1-0.9c-0.3,0-1.1,0.3-1.1,0.9c0,0.5,0.5,0.8,1.1,0.8C43.3,95.4,43.9,95.1,43.9,94.5z M43.8,92.2
					c0-0.5-0.5-0.8-1.1-0.8c-0.6,0-1.1,0.3-1.1,0.8c0,0.6,0.8,0.8,1.1,0.8C43,93,43.8,92.8,43.8,92.2z"/>
			</g>
			<g>
				<path d="M12.4,114.2c0-1.2,0.5-2.5,1.9-2.5c1.3,0,1.9,1.3,1.9,2.5c0,1.2-0.5,2.5-1.9,2.5C13,116.7,12.4,115.3,12.4,114.2z
					 M15.5,114.2c0-1-0.3-2-1.2-2s-1.2,1-1.2,2c0,1,0.3,2,1.2,2S15.5,115.1,15.5,114.2z"/>
				<path d="M17.8,116.6v-4l-0.8,0.8l-0.4-0.4l1.2-1.2h0.5v4.8H17.8z"/>
				<path d="M19,116.7l1.7-5.1h0.4l-1.7,5.1H19z"/>
				<path d="M22.4,116.6v-4l-0.8,0.8l-0.4-0.4l1.2-1.2H23v4.8H22.4z"/>
				<path d="M24.9,116.6v-4l-0.8,0.8l-0.4-0.4l1.2-1.2h0.5v4.8H24.9z"/>
				<path d="M26,116.7l1.7-5.1h0.4l-1.7,5.1H26z"/>
				<path d="M28.6,116.6v-0.5c1.7-1.4,2.7-2.2,2.7-3c0-0.6-0.5-0.9-1-0.9c-0.6,0-1,0.2-1.3,0.6l-0.4-0.4c0.4-0.5,1-0.8,1.7-0.8
					c0.8,0,1.6,0.5,1.6,1.4c0,1-1,1.9-2.4,3h2.4v0.5H28.6z"/>
				<path d="M32.8,114.2c0-1.2,0.5-2.5,1.9-2.5c1.3,0,1.9,1.3,1.9,2.5c0,1.2-0.5,2.5-1.9,2.5C33.4,116.7,32.8,115.3,32.8,114.2z
					 M35.9,114.2c0-1-0.3-2-1.2-2s-1.2,1-1.2,2c0,1,0.3,2,1.2,2S35.9,115.1,35.9,114.2z"/>
				<path d="M38.2,116.6v-4l-0.8,0.8l-0.4-0.4l1.2-1.2h0.5v4.8H38.2z"/>
				<path d="M39.8,115.4c0-0.6,0.6-1.1,1.2-1.3c-0.6-0.2-1.1-0.5-1.1-1.2c0-0.9,0.8-1.3,1.7-1.3c0.8,0,1.7,0.4,1.7,1.3
					c0,0.6-0.5,1-1.1,1.2c0.6,0.2,1.2,0.6,1.2,1.3c0,0.8-0.8,1.3-1.7,1.3C40.5,116.7,39.8,116.2,39.8,115.4z M42.6,115.3
					c0-0.6-0.8-0.9-1.1-0.9c-0.3,0-1.1,0.3-1.1,0.9c0,0.5,0.5,0.8,1.1,0.8C42.1,116.1,42.6,115.8,42.6,115.3z M42.5,113
					c0-0.5-0.5-0.8-1.1-0.8c-0.6,0-1.1,0.3-1.1,0.8c0,0.6,0.8,0.8,1.1,0.8C41.8,113.8,42.5,113.6,42.5,113z"/>
			</g>
			<g>
				<path d="M12.1,134.8c0-1.2,0.5-2.5,1.9-2.5c1.3,0,1.9,1.3,1.9,2.5c0,1.2-0.5,2.5-1.9,2.5C12.6,137.3,12.1,135.9,12.1,134.8z
					 M15.2,134.8c0-1-0.3-2-1.2-2s-1.2,1-1.2,2c0,1,0.3,2,1.2,2S15.2,135.7,15.2,134.8z"/>
				<path d="M16.4,136.5l0.4-0.4c0.3,0.4,0.8,0.6,1.4,0.6c0.7,0,1.1-0.3,1.1-0.9c0-0.6-0.5-0.9-1.2-0.9c-0.2,0-0.4,0-0.5,0v-0.6
					c0.1,0,0.3,0,0.5,0c0.6,0,1.1-0.2,1.1-0.8c0-0.5-0.5-0.8-1.1-0.8c-0.5,0-0.9,0.2-1.3,0.6l-0.3-0.4c0.3-0.4,0.9-0.7,1.7-0.7
					c0.9,0,1.6,0.5,1.6,1.3c0,0.7-0.6,1-1,1.1c0.4,0,1.1,0.4,1.1,1.2c0,0.8-0.6,1.4-1.7,1.4C17.3,137.3,16.7,136.9,16.4,136.5z"/>
				<path d="M20.2,137.3l1.7-5.1h0.4l-1.7,5.1H20.2z"/>
				<path d="M23.7,137.2v-4l-0.8,0.8l-0.4-0.4l1.2-1.2h0.5v4.8H23.7z"/>
				<path d="M26.1,137.2v-4l-0.8,0.8l-0.4-0.4l1.2-1.2h0.5v4.8H26.1z"/>
				<path d="M27.3,137.3l1.7-5.1h0.4l-1.7,5.1H27.3z"/>
				<path d="M29.8,137.2v-0.5c1.7-1.4,2.7-2.2,2.7-3c0-0.6-0.5-0.9-1-0.9c-0.6,0-1,0.2-1.3,0.6l-0.4-0.4c0.4-0.5,1-0.8,1.7-0.8
					c0.8,0,1.6,0.5,1.6,1.4c0,1-1,1.9-2.4,3h2.4v0.5H29.8z"/>
				<path d="M34.1,134.8c0-1.2,0.5-2.5,1.9-2.5c1.3,0,1.9,1.3,1.9,2.5c0,1.2-0.5,2.5-1.9,2.5C34.6,137.3,34.1,135.9,34.1,134.8z
					 M37.2,134.8c0-1-0.3-2-1.2-2s-1.2,1-1.2,2c0,1,0.3,2,1.2,2S37.2,135.7,37.2,134.8z"/>
				<path d="M39.5,137.2v-4l-0.8,0.8l-0.4-0.4l1.2-1.2h0.5v4.8H39.5z"/>
				<path d="M41,135.9c0-0.6,0.6-1.1,1.2-1.3c-0.6-0.2-1.1-0.5-1.1-1.2c0-0.9,0.8-1.3,1.7-1.3c0.8,0,1.7,0.4,1.7,1.3
					c0,0.6-0.5,1-1.1,1.2c0.6,0.2,1.2,0.6,1.2,1.3c0,0.8-0.8,1.3-1.7,1.3C41.8,137.3,41,136.8,41,135.9z M43.9,135.9
					c0-0.6-0.8-0.9-1.1-0.9c-0.3,0-1.1,0.3-1.1,0.9c0,0.5,0.5,0.8,1.1,0.8C43.3,136.7,43.9,136.4,43.9,135.9z M43.8,133.6
					c0-0.5-0.5-0.8-1.1-0.8c-0.6,0-1.1,0.3-1.1,0.8c0,0.6,0.8,0.8,1.1,0.8C43,134.4,43.8,134.2,43.8,133.6z"/>
			</g>
			<g>
				<path d="M12.1,155.3c0-1.2,0.5-2.5,1.9-2.5c1.3,0,1.9,1.3,1.9,2.5c0,1.2-0.5,2.5-1.9,2.5C12.6,157.8,12.1,156.5,12.1,155.3z
					 M15.2,155.3c0-1-0.3-2-1.2-2s-1.2,1-1.2,2c0,1,0.3,2,1.2,2S15.2,156.3,15.2,155.3z"/>
				<path d="M18.7,157.8v-1.2h-2.3V156l2.1-3.1h0.8v3.1H20v0.5h-0.7v1.2H18.7z M18.7,153.5L17,156h1.7V153.5z"/>
				<path d="M20.2,157.9l1.7-5.1h0.4l-1.7,5.1H20.2z"/>
				<path d="M23.7,157.8v-4l-0.8,0.8l-0.4-0.4l1.2-1.2h0.5v4.8H23.7z"/>
				<path d="M26.1,157.8v-4l-0.8,0.8l-0.4-0.4l1.2-1.2h0.5v4.8H26.1z"/>
				<path d="M27.3,157.9l1.7-5.1h0.4l-1.7,5.1H27.3z"/>
				<path d="M29.8,157.8v-0.5c1.7-1.4,2.7-2.2,2.7-3c0-0.6-0.5-0.9-1-0.9c-0.6,0-1,0.2-1.3,0.6l-0.4-0.4c0.4-0.5,1-0.8,1.7-0.8
					c0.8,0,1.6,0.5,1.6,1.4c0,1-1,1.9-2.4,3h2.4v0.5H29.8z"/>
				<path d="M34.1,155.3c0-1.2,0.5-2.5,1.9-2.5c1.3,0,1.9,1.3,1.9,2.5c0,1.2-0.5,2.5-1.9,2.5C34.6,157.8,34.1,156.5,34.1,155.3z
					 M37.2,155.3c0-1-0.3-2-1.2-2s-1.2,1-1.2,2c0,1,0.3,2,1.2,2S37.2,156.3,37.2,155.3z"/>
				<path d="M39.5,157.8v-4l-0.8,0.8l-0.4-0.4l1.2-1.2h0.5v4.8H39.5z"/>
				<path d="M41,156.5c0-0.6,0.6-1.1,1.2-1.3c-0.6-0.2-1.1-0.5-1.1-1.2c0-0.9,0.9-1.3,1.7-1.3c0.8,0,1.7,0.4,1.7,1.3
					c0,0.6-0.5,1-1.1,1.2c0.6,0.2,1.2,0.6,1.2,1.3c0,0.8-0.8,1.3-1.7,1.3C41.8,157.8,41,157.4,41,156.5z M43.9,156.5
					c0-0.6-0.8-0.9-1.1-0.9c-0.3,0-1.1,0.3-1.1,0.9c0,0.5,0.5,0.8,1.1,0.8C43.3,157.3,43.9,157,43.9,156.5z M43.8,154.2
					c0-0.5-0.5-0.8-1.1-0.8c-0.6,0-1.1,0.3-1.1,0.8c0,0.6,0.8,0.8,1.1,0.8C43,155,43.8,154.8,43.8,154.2z"/>
			</g>
			<g>
				<path d="M12.1,175.9c0-1.2,0.5-2.5,1.9-2.5c1.3,0,1.9,1.3,1.9,2.5c0,1.2-0.5,2.5-1.9,2.5C12.6,178.4,12.1,177.1,12.1,175.9z
					 M15.2,175.9c0-1-0.3-2-1.2-2s-1.2,1-1.2,2s0.3,2,1.2,2S15.2,176.9,15.2,175.9z"/>
				<path d="M16.7,177.7l0.4-0.4c0.3,0.4,0.7,0.6,1.3,0.6c0.7,0,1.1-0.5,1.1-1c0-0.6-0.5-1-1.1-1c-0.4,0-0.8,0.1-1.1,0.5l-0.4-0.2
					v-2.6h3v0.5h-2.4v1.7c0.2-0.2,0.6-0.4,1.1-0.4c0.8,0,1.5,0.6,1.5,1.5c0,1-0.7,1.6-1.7,1.6C17.5,178.4,17,178.1,16.7,177.7z"/>
				<path d="M20.5,178.5l1.7-5.1h0.4l-1.7,5.1H20.5z"/>
				<path d="M23.9,178.4v-4l-0.8,0.8l-0.4-0.4l1.2-1.2h0.5v4.8H23.9z"/>
				<path d="M26.4,178.4v-4l-0.8,0.8l-0.4-0.4l1.2-1.2H27v4.8H26.4z"/>
				<path d="M27.5,178.5l1.7-5.1h0.4l-1.7,5.1H27.5z"/>
				<path d="M30.1,178.4v-0.5c1.7-1.4,2.7-2.2,2.7-3c0-0.6-0.5-0.9-1-0.9c-0.6,0-1,0.2-1.3,0.6l-0.4-0.4c0.4-0.5,1-0.8,1.7-0.8
					c0.8,0,1.6,0.5,1.6,1.4c0,1-1,1.9-2.4,3h2.4v0.5H30.1z"/>
				<path d="M34.3,175.9c0-1.2,0.5-2.5,1.9-2.5c1.3,0,1.9,1.3,1.9,2.5c0,1.2-0.5,2.5-1.9,2.5C34.9,178.4,34.3,177.1,34.3,175.9z
					 M37.4,175.9c0-1-0.3-2-1.2-2s-1.2,1-1.2,2s0.3,2,1.2,2S37.4,176.9,37.4,175.9z"/>
				<path d="M39.7,178.4v-4l-0.8,0.8l-0.4-0.4l1.2-1.2h0.5v4.8H39.7z"/>
				<path d="M41.2,177.1c0-0.6,0.6-1.1,1.2-1.3c-0.6-0.2-1.1-0.5-1.1-1.2c0-0.9,0.9-1.3,1.7-1.3c0.8,0,1.7,0.4,1.7,1.3
					c0,0.6-0.5,1-1.1,1.2c0.6,0.2,1.2,0.6,1.2,1.3c0,0.8-0.8,1.3-1.7,1.3C42,178.4,41.2,178,41.2,177.1z M44.1,177.1
					c0-0.6-0.8-0.9-1.1-0.9c-0.3,0-1.1,0.3-1.1,0.9c0,0.5,0.5,0.8,1.1,0.8C43.6,177.9,44.1,177.6,44.1,177.1z M44,174.8
					c0-0.5-0.5-0.8-1.1-0.8c-0.6,0-1.1,0.3-1.1,0.8c0,0.6,0.8,0.8,1.1,0.8C43.3,175.6,44,175.4,44,174.8z"/>
			</g>
		</g>
		<g id="Заголовок_1_">
			<g>
				<path d="M108.1,55.3v-4.8h2.5c0.9,0,1.4,0.6,1.4,1.2c0,0.6-0.4,1-0.8,1.1c0.5,0.1,0.9,0.6,0.9,1.2c0,0.7-0.5,1.3-1.4,1.3H108.1z
					 M111,51.8c0-0.3-0.2-0.5-0.6-0.5h-1.3v1.1h1.3C110.8,52.4,111,52.2,111,51.8z M111.1,53.8c0-0.3-0.2-0.6-0.6-0.6h-1.3v1.1h1.3
					C110.9,54.4,111.1,54.2,111.1,53.8z"/>
				<path d="M114.1,55.3v-3.9h-1.4v-0.9h3.9v0.9h-1.4v3.9H114.1z"/>
				<path d="M116.9,52.9c0-1.5,1.1-2.5,2.6-2.5c1.1,0,1.7,0.6,2,1.2l-0.9,0.4c-0.2-0.4-0.6-0.7-1.1-0.7c-0.9,0-1.5,0.7-1.5,1.6
					c0,0.9,0.6,1.6,1.5,1.6c0.5,0,0.9-0.3,1.1-0.7l0.9,0.4c-0.3,0.6-1,1.2-2,1.2C118.1,55.4,116.9,54.3,116.9,52.9z"/>
			</g>
			<g>
				<path d="M150.6,53.3v-2.9h1v2.9c0,0.7,0.4,1.1,1.1,1.1c0.7,0,1.1-0.5,1.1-1.1v-2.9h1.1v2.9c0,1.2-0.7,2-2.2,2
					C151.3,55.4,150.6,54.5,150.6,53.3z"/>
				<path d="M155.6,54.6l0.6-0.8c0.3,0.4,0.9,0.7,1.5,0.7c0.6,0,0.8-0.3,0.8-0.5c0-0.9-2.8-0.3-2.8-2.1c0-0.8,0.7-1.5,1.8-1.5
					c0.8,0,1.4,0.2,1.9,0.7l-0.6,0.8c-0.4-0.4-0.9-0.5-1.4-0.5c-0.4,0-0.7,0.2-0.7,0.5c0,0.8,2.8,0.3,2.8,2.1c0,0.9-0.6,1.6-1.9,1.6
					C156.7,55.4,156.1,55.1,155.6,54.6z"/>
				<path d="M160.3,55.3v-4.8h1.9c1.5,0,2.6,1,2.6,2.4c0,1.5-1.1,2.4-2.6,2.4H160.3z M163.7,52.9c0-0.9-0.5-1.5-1.5-1.5h-0.9v3h0.9
					C163.2,54.4,163.7,53.7,163.7,52.9z"/>
			</g>
			<g>
				<path d="M11.9,55.3v-4.8h1.7c1.5,0,2.5,1.1,2.5,2.4c0,1.4-1,2.4-2.5,2.4H11.9z M15.4,52.9c0-1-0.7-1.9-1.9-1.9h-1.1v3.8h1.1
					C14.7,54.7,15.4,53.9,15.4,52.9z"/>
				<path d="M19.1,55.3v-0.4c-0.3,0.3-0.7,0.5-1.2,0.5c-0.6,0-1.2-0.4-1.2-1.2c0-0.8,0.6-1.2,1.2-1.2c0.5,0,0.9,0.2,1.2,0.5v-0.6
					c0-0.5-0.4-0.7-0.9-0.7c-0.4,0-0.8,0.2-1.1,0.5l-0.3-0.4c0.4-0.4,0.8-0.6,1.4-0.6c0.7,0,1.4,0.3,1.4,1.2v2.4H19.1z M19.1,54.5
					v-0.7c-0.2-0.3-0.6-0.4-1-0.4c-0.5,0-0.9,0.3-0.9,0.8c0,0.4,0.4,0.8,0.9,0.8C18.5,55,18.9,54.8,19.1,54.5z"/>
				<path d="M20.9,54.5v-2.3h-0.6v-0.5h0.6v-1h0.5v1h0.7v0.5h-0.7v2.2c0,0.3,0.1,0.5,0.4,0.5c0.2,0,0.3-0.1,0.4-0.1l0.2,0.4
					c-0.1,0.1-0.3,0.2-0.7,0.2C21.1,55.4,20.9,55.1,20.9,54.5z"/>
				<path d="M22.7,53.5c0-1,0.7-1.8,1.7-1.8c1.1,0,1.7,0.8,1.7,1.9v0.1h-2.8c0,0.7,0.5,1.2,1.3,1.2c0.4,0,0.8-0.2,1.1-0.4l0.3,0.4
					c-0.3,0.3-0.8,0.5-1.4,0.5C23.4,55.4,22.7,54.6,22.7,53.5z M24.4,52.1c-0.7,0-1.1,0.6-1.1,1.2h2.3
					C25.5,52.8,25.2,52.1,24.4,52.1z"/>
			</g>
		</g>
	</g>
	<g id="Header_1_">
		<linearGradient id="SVGID_47_" gradientUnits="userSpaceOnUse" x1="89.4958" y1="39.1969" x2="89.4958" y2="-5.922518e-03">
			<stop  offset="0" style="stop-color:#E15DD3"/>
			<stop  offset="1" style="stop-color:#8E34F7"/>
		</linearGradient>
		<rect x="0" y="0" class="st28" width="179" height="39.2"/>
		<circle class="st15" cx="99.1" cy="13.1" r="0.4"/>
		<circle class="st16" cx="157.9" cy="7.4" r="0.4"/>
		<circle class="st16" cx="39.1" cy="16.4" r="0.4"/>
		<circle class="st15" cx="84.7" cy="27.2" r="0.4"/>
		<g>
			<path class="st2" d="M12,24.8V16h5.3c1.8,0,2.6,1.2,2.6,2.2c0,1.1-0.6,1.8-1.5,2c0.9,0.1,1.7,1,1.7,2.1c0,1.2-0.8,2.4-2.6,2.4H12
				z M17.2,18.7c0-0.3-0.3-0.5-0.5-0.5h-2.1v1h2.1C16.9,19.3,17.2,19.1,17.2,18.7z M17.4,22.1c0-0.3-0.2-0.6-0.6-0.6h-2.1v1.1h2.1
				C17.1,22.6,17.4,22.4,17.4,22.1z"/>
			<path class="st2" d="M23,24.8v-6.5h-2.4V16H28v2.3h-2.3v6.5H23z"/>
			<path class="st2" d="M28.5,20.4c0-2.7,2.1-4.5,4.8-4.5c2.3,0,3.5,1.3,4,2.6L35,19.5c-0.2-0.7-0.9-1.3-1.7-1.3
				c-1.3,0-2.1,1-2.1,2.2s0.9,2.2,2.1,2.2c0.8,0,1.5-0.6,1.7-1.3l2.3,1.1c-0.5,1.2-1.7,2.6-4,2.6C30.6,25,28.5,23.1,28.5,20.4z"/>
			<path class="st2" d="M41.6,21.1v2.5H40v-2.5h-2.2v-1.4H40v-2.4h1.5v2.4h2.2v1.4H41.6z"/>
			<path class="st2" d="M44.3,23.6l1.3-1.8c0.7,0.6,1.7,0.8,2.4,0.8c0.9,0,1.3-0.3,1.3-0.6c0-0.3-0.2-0.5-1.4-0.5
				c-0.4,0-1.1,0-1.3,0v-2.4c0.2,0,1,0,1.3,0c0.8,0,1.2-0.2,1.2-0.4c0-0.4-0.5-0.6-1.3-0.6c-0.8,0-1.5,0.3-2.1,0.8l-1.3-1.7
				c0.8-0.9,2-1.5,3.7-1.5c2.4,0,3.7,1,3.7,2.4c0,0.9-0.8,1.8-1.9,2c1,0.1,2.1,0.8,2.1,2.1c0,1.6-1.5,2.6-3.8,2.6
				C46.4,25,45.1,24.4,44.3,23.6z"/>
			<path class="st2" d="M52.5,20.4c0-2.4,1.3-4.5,3.9-4.5s3.9,2.1,3.9,4.5S59.1,25,56.4,25S52.5,22.8,52.5,20.4z M57.7,20.4
				c0-1.5-0.4-2.2-1.2-2.2s-1.2,0.7-1.2,2.2s0.4,2.2,1.2,2.2S57.7,21.9,57.7,20.4z"/>
			<path class="st2" d="M60.8,18.1c0-1.2,0.9-2.2,2.3-2.2c1.5,0,2.4,1,2.4,2.2c0,1.2-0.9,2.2-2.4,2.2C61.8,20.3,60.8,19.3,60.8,18.1
				z M62.3,24.8l5.6-8.8h1.3l-5.6,8.8H62.3z M64,18.1c0-0.6-0.3-0.8-0.8-0.8c-0.4,0-0.7,0.2-0.7,0.8c0,0.6,0.3,0.8,0.7,0.8
				C63.6,18.9,64,18.7,64,18.1z M65.9,22.8c0-1.2,0.9-2.2,2.3-2.2s2.4,1,2.4,2.2c0,1.2-0.9,2.2-2.4,2.2S65.9,24,65.9,22.8z
				 M69.1,22.8c0-0.6-0.3-0.8-0.8-0.8s-0.8,0.2-0.8,0.8c0,0.6,0.3,0.8,0.8,0.8S69.1,23.4,69.1,22.8z"/>
			<path class="st2" d="M105.2,21.2V16h2.7v5.1c0,0.8,0.6,1.5,1.6,1.5c1.1,0,1.6-0.7,1.6-1.5V16h2.7v5.2c0,2.2-1.4,3.8-4.3,3.8
				S105.2,23.4,105.2,21.2z"/>
			<path class="st2" d="M114.7,23.6l1.4-2c0.7,0.6,1.6,1.1,2.8,1.1c0.5,0,1-0.1,1-0.5c0-0.8-4.9,0-4.9-3.5c0-1.5,1.2-2.9,3.7-2.9
				c1.4,0,2.7,0.4,3.7,1.2l-1.4,1.9c-0.8-0.6-1.8-0.9-2.6-0.9c-0.5,0-0.7,0.2-0.7,0.4c0,0.8,4.9,0.1,4.9,3.4c0,1.9-1.4,3.1-3.8,3.1
				C116.9,25,115.6,24.4,114.7,23.6z"/>
			<path class="st2" d="M123.4,24.8V16h3.9c2.8,0,4.8,1.6,4.8,4.4s-2.1,4.4-4.8,4.4H123.4z M129.5,20.4c0-1.2-0.7-2.1-2.1-2.1h-1.3
				v4.2h1.3C128.7,22.5,129.5,21.5,129.5,20.4z"/>
			<path class="st2" d="M136.5,21.1v2.5H135v-2.5h-2.2v-1.4h2.2v-2.4h1.5v2.4h2.2v1.4H136.5z"/>
			<path class="st2" d="M139.7,24.8v-2.1c4-2.8,4.4-3.2,4.4-3.8c0-0.4-0.4-0.7-1-0.7c-0.9,0-1.6,0.3-2.3,0.9l-1.5-1.8
				c1-1.1,2.5-1.5,3.7-1.5c2.3,0,3.8,1.3,3.8,3c0,1.2-0.7,2.2-2.8,3.6h2.9v2.3H139.7z"/>
			<path class="st2" d="M147.4,20.4c0-2.4,1.3-4.5,3.9-4.5s3.9,2.1,3.9,4.5S154,25,151.3,25S147.4,22.8,147.4,20.4z M152.6,20.4
				c0-1.5-0.4-2.2-1.2-2.2s-1.2,0.7-1.2,2.2s0.4,2.2,1.2,2.2S152.6,21.9,152.6,20.4z"/>
			<path class="st2" d="M155.7,18.1c0-1.2,0.9-2.2,2.3-2.2c1.5,0,2.4,1,2.4,2.2c0,1.2-0.9,2.2-2.4,2.2
				C156.6,20.3,155.7,19.3,155.7,18.1z M157.2,24.8l5.6-8.8h1.3l-5.6,8.8H157.2z M158.8,18.1c0-0.6-0.3-0.8-0.8-0.8
				c-0.4,0-0.7,0.2-0.7,0.8c0,0.6,0.3,0.8,0.7,0.8C158.5,18.9,158.8,18.7,158.8,18.1z M160.8,22.8c0-1.2,0.9-2.2,2.3-2.2
				c1.4,0,2.4,1,2.4,2.2c0,1.2-0.9,2.2-2.4,2.2C161.7,25,160.8,24,160.8,22.8z M163.9,22.8c0-0.6-0.3-0.8-0.8-0.8s-0.8,0.2-0.8,0.8
				c0,0.6,0.3,0.8,0.8,0.8S163.9,23.4,163.9,22.8z"/>
		</g>
		<g>
			<defs>
				<rect id="SVGID_48_" x="110.8" y="-7.4" width="68.2" height="37.2"/>
			</defs>
			<clipPath id="SVGID_49_">
				<use xlink:href="#SVGID_48_"  style="overflow:visible;"/>
			</clipPath>
			
				<radialGradient id="SVGID_50_" cx="166.6133" cy="1.6265" r="33.0828" gradientTransform="matrix(1.0134 0 0 1 -1.4912 0)" gradientUnits="userSpaceOnUse">
				<stop  offset="0" style="stop-color:#E15DD3"/>
				<stop  offset="1" style="stop-color:#8E34F7"/>
			</radialGradient>
			<ellipse class="st29" cx="177" cy="13.5" rx="9.5" ry="9.4"/>
		</g>
	</g>
	<g id="График_1_">
		<g>
			<g>
				<defs>
					<line id="SVGID_51_" x1="179.8" y1="303.5" x2="179.8" y2="-12.8"/>
				</defs>
				<clipPath id="SVGID_52_">
					<use xlink:href="#SVGID_51_"  style="overflow:visible;"/>
				</clipPath>
			</g>
		</g>
		<g>
			<g>
				<defs>
					<rect id="SVGID_53_" x="18" y="237.7" width="147.2" height="0.5"/>
				</defs>
				<use xlink:href="#SVGID_53_"  style="overflow:visible;"/>
				<clipPath id="SVGID_54_">
					<use xlink:href="#SVGID_53_"  style="overflow:visible;"/>
				</clipPath>
			</g>
		</g>
		<g>
			<polyline class="st20" points="18,227.9 42.4,247.9 67,228 91.4,248.1 116,228.1 140.5,248.2 165,228.2 			"/>
		</g>
		<g>
			<polyline class="st21" points="17.8,233.7 42.4,253.7 66.9,233.7 91.5,253.7 116.1,233.7 140.6,253.7 165.2,233.7 			"/>
		</g>
		<g>
			<path d="M22.3,275.1h-0.2c-0.6-0.8-1-1.2-1.4-1.2c-0.3,0-0.4,0.2-0.4,0.5c0,0.3,0.1,0.5,0.3,0.6l-0.2,0.2
				c-0.2-0.2-0.3-0.5-0.3-0.8c0-0.4,0.2-0.7,0.6-0.7c0.4,0,0.9,0.5,1.3,1.1v-1.1h0.2V275.1z"/>
			<path d="M22.4,273.3l-2.3-0.8v-0.2l2.3,0.8V273.3z"/>
			<path d="M22.3,272.2h-0.2c-0.6-0.8-1-1.2-1.4-1.2c-0.3,0-0.4,0.2-0.4,0.5c0,0.3,0.1,0.5,0.3,0.6l-0.2,0.2
				c-0.2-0.2-0.3-0.5-0.3-0.8c0-0.4,0.2-0.7,0.6-0.7c0.4,0,0.9,0.5,1.3,1.1v-1.1h0.2V272.2z"/>
			<path d="M21.2,270.3c-0.5,0-1.1-0.2-1.1-0.8c0-0.6,0.6-0.8,1.1-0.8c0.5,0,1.1,0.2,1.1,0.8C22.3,270,21.7,270.3,21.2,270.3z
				 M21.2,268.9c-0.4,0-0.9,0.1-0.9,0.6c0,0.4,0.5,0.6,0.9,0.6c0.4,0,0.9-0.1,0.9-0.6C22.1,269,21.6,268.9,21.2,268.9z"/>
			<path d="M22.3,267.8h-1.8l0.4,0.4l-0.2,0.2l-0.6-0.5v-0.2h2.2V267.8z"/>
			<path d="M21.7,267.1c-0.3,0-0.5-0.3-0.6-0.5c-0.1,0.3-0.2,0.5-0.5,0.5c-0.4,0-0.6-0.4-0.6-0.8c0-0.4,0.2-0.8,0.6-0.8
				c0.3,0,0.5,0.2,0.5,0.5c0.1-0.3,0.3-0.5,0.6-0.5c0.4,0,0.6,0.4,0.6,0.8C22.3,266.8,22.1,267.1,21.7,267.1z M20.7,265.9
				c-0.2,0-0.4,0.2-0.4,0.5c0,0.3,0.1,0.5,0.4,0.5c0.3,0,0.4-0.3,0.4-0.5C21,266.2,20.9,265.9,20.7,265.9z M21.7,265.8
				c-0.3,0-0.4,0.4-0.4,0.5c0,0.1,0.1,0.5,0.4,0.5c0.2,0,0.4-0.2,0.4-0.5C22.1,266.1,21.9,265.8,21.7,265.8z"/>
		</g>
		<g>
			<path d="M13.6,238.7c-0.5,0-1.1-0.2-1.1-0.8c0-0.6,0.6-0.8,1.1-0.8c0.5,0,1.1,0.2,1.1,0.8C14.8,238.4,14.1,238.7,13.6,238.7z
				 M13.6,237.3c-0.4,0-0.9,0.1-0.9,0.6c0,0.4,0.5,0.6,0.9,0.6s0.9-0.1,0.9-0.6C14.5,237.4,14.1,237.3,13.6,237.3z"/>
		</g>
		<g>
			<path class="st3" d="M13.8,204.8h0.7v0.2h-0.7v0.6h-0.2V205H13v-0.2h0.7v-0.6h0.2V204.8z"/>
			<path class="st3" d="M14.9,203.5H13l0.4,0.4l-0.2,0.2l-0.6-0.6v-0.2h2.2V203.5z"/>
			<path class="st3" d="M13.8,202.8c-0.5,0-1.1-0.2-1.1-0.8c0-0.6,0.6-0.8,1.1-0.8c0.5,0,1.1,0.2,1.1,0.8
				C14.9,202.5,14.3,202.8,13.8,202.8z M13.8,201.4c-0.4,0-0.9,0.1-0.9,0.6s0.5,0.6,0.9,0.6s0.9-0.1,0.9-0.6S14.2,201.4,13.8,201.4z
				"/>
		</g>
		<g>
			<path class="st3" d="M14.4,275.1h-0.2v-0.8h0.2V275.1z"/>
			<path class="st3" d="M15,272.8h-1.8l0.4,0.4l-0.2,0.2l-0.6-0.5v-0.2H15V272.8z"/>
			<path class="st3" d="M14,272.1c-0.5,0-1.1-0.2-1.1-0.8c0-0.6,0.6-0.8,1.1-0.8c0.5,0,1.1,0.2,1.1,0.8
				C15.1,271.9,14.5,272.1,14,272.1z M14,270.7c-0.4,0-0.9,0.1-0.9,0.6c0,0.4,0.5,0.6,0.9,0.6s0.9-0.1,0.9-0.6
				C14.8,270.8,14.4,270.7,14,270.7z"/>
		</g>
		<g>
			<path d="M68.5,275.4c-0.5,0-1.1-0.2-1.1-0.8c0-0.6,0.6-0.8,1.1-0.8c0.5,0,1.1,0.2,1.1,0.8C69.6,275.1,69,275.4,68.5,275.4z
				 M68.5,274c-0.4,0-0.9,0.1-0.9,0.6c0,0.4,0.5,0.6,0.9,0.6s0.9-0.1,0.9-0.6C69.4,274.1,68.9,274,68.5,274z"/>
			<path d="M69.6,272.4H69v1h-0.2l-1.4-0.9v-0.4h1.4v-0.3H69v0.3h0.6V272.4z M67.7,272.4l1.1,0.8v-0.8H67.7z"/>
			<path d="M69.7,271.7l-2.3-0.8v-0.2l2.3,0.8V271.7z"/>
			<path d="M69.6,270.5h-0.2c-0.6-0.8-1-1.2-1.4-1.2c-0.3,0-0.4,0.2-0.4,0.5c0,0.3,0.1,0.5,0.3,0.6l-0.2,0.2
				c-0.2-0.2-0.3-0.5-0.3-0.8c0-0.4,0.2-0.7,0.6-0.7c0.4,0,0.9,0.5,1.3,1.1V269h0.2V270.5z"/>
			<path d="M68.5,268.6c-0.5,0-1.1-0.2-1.1-0.8c0-0.6,0.6-0.8,1.1-0.8c0.5,0,1.1,0.2,1.1,0.8C69.6,268.4,69,268.6,68.5,268.6z
				 M68.5,267.2c-0.4,0-0.9,0.1-0.9,0.6c0,0.4,0.5,0.6,0.9,0.6s0.9-0.1,0.9-0.6C69.4,267.3,68.9,267.2,68.5,267.2z"/>
			<path d="M69.6,266.2h-1.8l0.4,0.4l-0.2,0.2l-0.6-0.5v-0.2h2.2V266.2z"/>
			<path d="M69,265.5c-0.3,0-0.5-0.3-0.6-0.5c-0.1,0.3-0.2,0.5-0.5,0.5c-0.4,0-0.6-0.4-0.6-0.8c0-0.4,0.2-0.8,0.6-0.8
				c0.3,0,0.5,0.2,0.5,0.5c0.1-0.3,0.3-0.5,0.6-0.5c0.4,0,0.6,0.4,0.6,0.8C69.6,265.1,69.4,265.5,69,265.5z M68,264.2
				c-0.2,0-0.4,0.2-0.4,0.5c0,0.3,0.1,0.5,0.4,0.5c0.3,0,0.4-0.3,0.4-0.5C68.3,264.5,68.2,264.2,68,264.2z M69,264.2
				c-0.3,0-0.4,0.4-0.4,0.5c0,0.1,0.1,0.5,0.4,0.5c0.2,0,0.4-0.2,0.4-0.5C69.4,264.4,69.2,264.2,69,264.2z"/>
		</g>
		<g>
			<path d="M43.3,275.3c-0.5,0-1.1-0.2-1.1-0.8c0-0.6,0.6-0.8,1.1-0.8c0.5,0,1.1,0.2,1.1,0.8C44.5,275,43.9,275.3,43.3,275.3z
				 M43.3,273.9c-0.4,0-0.9,0.1-0.9,0.6c0,0.4,0.5,0.6,0.9,0.6s0.9-0.1,0.9-0.6C44.2,274,43.8,273.9,43.3,273.9z"/>
			<path d="M44.4,272.3h-0.6v1h-0.2l-1.4-0.9V272h1.4v-0.3h0.2v0.3h0.6V272.3z M42.5,272.3l1.1,0.8v-0.8H42.5z"/>
			<path d="M44.5,271.6l-2.3-0.8v-0.2l2.3,0.8V271.6z"/>
			<path d="M44.4,270.4h-0.2c-0.6-0.8-1-1.2-1.4-1.2c-0.3,0-0.4,0.2-0.4,0.5c0,0.3,0.1,0.5,0.3,0.6l-0.2,0.2
				c-0.2-0.2-0.3-0.5-0.3-0.8c0-0.4,0.2-0.7,0.6-0.7c0.4,0,0.9,0.5,1.3,1.1v-1.1h0.2V270.4z"/>
			<path d="M43.3,268.5c-0.5,0-1.1-0.2-1.1-0.8c0-0.6,0.6-0.8,1.1-0.8c0.5,0,1.1,0.2,1.1,0.8C44.5,268.3,43.9,268.5,43.3,268.5z
				 M43.3,267.1c-0.4,0-0.9,0.1-0.9,0.6c0,0.4,0.5,0.6,0.9,0.6s0.9-0.1,0.9-0.6C44.2,267.2,43.8,267.1,43.3,267.1z"/>
			<path d="M44.4,266.1h-1.8l0.4,0.4l-0.2,0.2l-0.6-0.5v-0.2h2.2V266.1z"/>
			<path d="M43.9,265.4c-0.3,0-0.5-0.3-0.6-0.5c-0.1,0.3-0.2,0.5-0.5,0.5c-0.4,0-0.6-0.4-0.6-0.8c0-0.4,0.2-0.8,0.6-0.8
				c0.3,0,0.5,0.2,0.5,0.5c0.1-0.3,0.3-0.5,0.6-0.5c0.4,0,0.6,0.4,0.6,0.8C44.5,265,44.2,265.4,43.9,265.4z M42.8,264.1
				c-0.2,0-0.4,0.2-0.4,0.5c0,0.3,0.1,0.5,0.4,0.5c0.3,0,0.4-0.3,0.4-0.5C43.2,264.4,43.1,264.1,42.8,264.1z M43.8,264.1
				c-0.3,0-0.4,0.4-0.4,0.5c0,0.1,0.1,0.5,0.4,0.5c0.2,0,0.4-0.2,0.4-0.5C44.2,264.3,44.1,264.1,43.8,264.1z"/>
		</g>
		<g>
			<path d="M93.9,275.3c-0.5,0-1.1-0.2-1.1-0.8c0-0.6,0.6-0.8,1.1-0.8c0.5,0,1.1,0.2,1.1,0.8C95.1,275.1,94.5,275.3,93.9,275.3z
				 M93.9,273.9c-0.4,0-0.9,0.1-0.9,0.6c0,0.4,0.5,0.6,0.9,0.6s0.9-0.1,0.9-0.6C94.8,274.1,94.4,273.9,93.9,273.9z"/>
			<path d="M95,272.3h-0.6v1h-0.2l-1.4-0.9v-0.4h1.4v-0.3h0.2v0.3H95V272.3z M93.1,272.3l1.1,0.8v-0.8H93.1z"/>
			<path d="M95.1,271.6l-2.3-0.8v-0.2l2.3,0.8V271.6z"/>
			<path d="M95,270.5h-0.2c-0.6-0.8-1-1.2-1.4-1.2c-0.3,0-0.4,0.2-0.4,0.5c0,0.3,0.1,0.5,0.3,0.6l-0.2,0.2c-0.2-0.2-0.3-0.5-0.3-0.8
				c0-0.4,0.2-0.7,0.6-0.7c0.4,0,0.9,0.5,1.3,1.1V269H95V270.5z"/>
			<path d="M93.9,268.6c-0.5,0-1.1-0.2-1.1-0.8c0-0.6,0.6-0.8,1.1-0.8c0.5,0,1.1,0.2,1.1,0.8C95.1,268.3,94.5,268.6,93.9,268.6z
				 M93.9,267.2c-0.4,0-0.9,0.1-0.9,0.6c0,0.4,0.5,0.6,0.9,0.6s0.9-0.1,0.9-0.6C94.8,267.3,94.4,267.2,93.9,267.2z"/>
			<path d="M95,266.1h-1.8l0.4,0.4l-0.2,0.2l-0.6-0.5v-0.2H95V266.1z"/>
			<path d="M94.5,265.4c-0.3,0-0.5-0.3-0.6-0.5c-0.1,0.3-0.2,0.5-0.5,0.5c-0.4,0-0.6-0.4-0.6-0.8c0-0.4,0.2-0.8,0.6-0.8
				c0.3,0,0.5,0.2,0.5,0.5c0.1-0.3,0.3-0.5,0.6-0.5c0.4,0,0.6,0.4,0.6,0.8C95.1,265.1,94.8,265.4,94.5,265.4z M93.4,264.2
				c-0.2,0-0.4,0.2-0.4,0.5c0,0.3,0.1,0.5,0.4,0.5c0.3,0,0.4-0.3,0.4-0.5C93.7,264.5,93.7,264.2,93.4,264.2z M94.4,264.1
				c-0.3,0-0.4,0.4-0.4,0.5c0,0.1,0.1,0.5,0.4,0.5c0.2,0,0.4-0.2,0.4-0.5C94.8,264.4,94.7,264.1,94.4,264.1z"/>
		</g>
		<g>
			<path d="M114.2,275.3c-0.5,0-1.1-0.2-1.1-0.8c0-0.6,0.6-0.8,1.1-0.8c0.5,0,1.1,0.2,1.1,0.8C115.4,275,114.7,275.3,114.2,275.3z
				 M114.2,273.9c-0.4,0-0.9,0.1-0.9,0.6c0,0.4,0.5,0.6,0.9,0.6s0.9-0.1,0.9-0.6C115.1,274,114.7,273.9,114.2,273.9z"/>
			<path d="M115.3,272.3h-0.6v1h-0.2l-1.4-0.9V272h1.4v-0.3h0.2v0.3h0.6V272.3z M113.4,272.3l1.1,0.8v-0.8H113.4z"/>
			<path d="M115.4,271.6l-2.3-0.8v-0.2l2.3,0.8V271.6z"/>
			<path d="M115.3,270.4h-0.2c-0.6-0.8-1-1.2-1.4-1.2c-0.3,0-0.4,0.2-0.4,0.5c0,0.3,0.1,0.5,0.3,0.6l-0.2,0.2
				c-0.2-0.2-0.3-0.5-0.3-0.8c0-0.4,0.2-0.7,0.6-0.7c0.4,0,0.9,0.5,1.3,1.1v-1.1h0.2V270.4z"/>
			<path d="M114.2,268.5c-0.5,0-1.1-0.2-1.1-0.8c0-0.6,0.6-0.8,1.1-0.8c0.5,0,1.1,0.2,1.1,0.8C115.4,268.3,114.7,268.5,114.2,268.5z
				 M114.2,267.1c-0.4,0-0.9,0.1-0.9,0.6c0,0.4,0.5,0.6,0.9,0.6s0.9-0.1,0.9-0.6C115.1,267.2,114.7,267.1,114.2,267.1z"/>
			<path d="M115.3,266.1h-1.8l0.4,0.4l-0.2,0.2l-0.6-0.5v-0.2h2.2V266.1z"/>
			<path d="M114.8,265.4c-0.3,0-0.5-0.3-0.6-0.5c-0.1,0.3-0.2,0.5-0.5,0.5c-0.4,0-0.6-0.4-0.6-0.8c0-0.4,0.2-0.8,0.6-0.8
				c0.3,0,0.5,0.2,0.5,0.5c0.1-0.3,0.3-0.5,0.6-0.5c0.4,0,0.6,0.4,0.6,0.8C115.4,265,115.1,265.4,114.8,265.4z M113.7,264.1
				c-0.2,0-0.4,0.2-0.4,0.5c0,0.3,0.1,0.5,0.4,0.5c0.3,0,0.4-0.3,0.4-0.5C114,264.4,114,264.1,113.7,264.1z M114.7,264.1
				c-0.3,0-0.4,0.4-0.4,0.5c0,0.1,0.1,0.5,0.4,0.5c0.2,0,0.4-0.2,0.4-0.5C115.1,264.3,115,264.1,114.7,264.1z"/>
		</g>
		<g>
			<path d="M138.6,275.2c-0.5,0-1.1-0.2-1.1-0.8c0-0.6,0.6-0.8,1.1-0.8c0.5,0,1.1,0.2,1.1,0.8C139.7,275,139.1,275.2,138.6,275.2z
				 M138.6,273.8c-0.4,0-0.9,0.1-0.9,0.6c0,0.4,0.5,0.6,0.9,0.6s0.9-0.1,0.9-0.6C139.5,273.9,139,273.8,138.6,273.8z"/>
			<path d="M139.7,272.2h-0.6v1h-0.2l-1.4-0.9v-0.4h1.4v-0.3h0.2v0.3h0.6V272.2z M137.7,272.2l1.1,0.8v-0.8H137.7z"/>
			<path d="M139.8,271.5l-2.3-0.8v-0.2l2.3,0.8V271.5z"/>
			<path d="M139.7,270.4h-0.2c-0.6-0.8-1-1.2-1.4-1.2c-0.3,0-0.4,0.2-0.4,0.5c0,0.3,0.1,0.5,0.3,0.6l-0.2,0.2
				c-0.2-0.2-0.3-0.5-0.3-0.8c0-0.4,0.2-0.7,0.6-0.7c0.4,0,0.9,0.5,1.3,1.1v-1.1h0.2V270.4z"/>
			<path d="M138.6,268.4c-0.5,0-1.1-0.2-1.1-0.8c0-0.6,0.6-0.8,1.1-0.8c0.5,0,1.1,0.2,1.1,0.8C139.7,268.2,139.1,268.4,138.6,268.4z
				 M138.6,267c-0.4,0-0.9,0.1-0.9,0.6c0,0.4,0.5,0.6,0.9,0.6s0.9-0.1,0.9-0.6C139.5,267.2,139,267,138.6,267z"/>
			<path d="M139.7,266h-1.8l0.4,0.4l-0.2,0.2l-0.6-0.5v-0.2h2.2V266z"/>
			<path d="M139.1,265.3c-0.3,0-0.5-0.3-0.6-0.5c-0.1,0.3-0.2,0.5-0.5,0.5c-0.4,0-0.6-0.4-0.6-0.8c0-0.4,0.2-0.8,0.6-0.8
				c0.3,0,0.5,0.2,0.5,0.5c0.1-0.3,0.3-0.5,0.6-0.5c0.4,0,0.6,0.4,0.6,0.8C139.7,264.9,139.5,265.3,139.1,265.3z M138.1,264
				c-0.2,0-0.4,0.2-0.4,0.5c0,0.3,0.1,0.5,0.4,0.5c0.3,0,0.4-0.3,0.4-0.5C138.4,264.4,138.3,264,138.1,264z M139.1,264
				c-0.3,0-0.4,0.4-0.4,0.5c0,0.1,0.1,0.5,0.4,0.5c0.2,0,0.4-0.2,0.4-0.5C139.5,264.2,139.3,264,139.1,264z"/>
		</g>
		<g>
			<path d="M161.3,275.3c-0.5,0-1.1-0.2-1.1-0.8c0-0.6,0.6-0.8,1.1-0.8c0.5,0,1.1,0.2,1.1,0.8C162.4,275,161.8,275.3,161.3,275.3z
				 M161.3,273.9c-0.4,0-0.9,0.1-0.9,0.6c0,0.4,0.5,0.6,0.9,0.6s0.9-0.1,0.9-0.6C162.2,274,161.8,273.9,161.3,273.9z"/>
			<path d="M162.4,272.3h-0.6v1h-0.2l-1.4-0.9V272h1.4v-0.3h0.2v0.3h0.6V272.3z M160.5,272.3l1.1,0.8v-0.8H160.5z"/>
			<path d="M162.5,271.6l-2.3-0.8v-0.2l2.3,0.8V271.6z"/>
			<path d="M162.4,270.4h-0.2c-0.6-0.8-1-1.2-1.4-1.2c-0.3,0-0.4,0.2-0.4,0.5c0,0.3,0.1,0.5,0.3,0.6l-0.2,0.2
				c-0.2-0.2-0.3-0.5-0.3-0.8c0-0.4,0.2-0.7,0.6-0.7c0.4,0,0.9,0.5,1.3,1.1v-1.1h0.2V270.4z"/>
			<path d="M161.3,268.5c-0.5,0-1.1-0.2-1.1-0.8c0-0.6,0.6-0.8,1.1-0.8c0.5,0,1.1,0.2,1.1,0.8C162.4,268.3,161.8,268.5,161.3,268.5z
				 M161.3,267.1c-0.4,0-0.9,0.1-0.9,0.6c0,0.4,0.5,0.6,0.9,0.6s0.9-0.1,0.9-0.6C162.2,267.2,161.8,267.1,161.3,267.1z"/>
			<path d="M162.4,266.1h-1.8l0.4,0.4l-0.2,0.2l-0.6-0.5v-0.2h2.2V266.1z"/>
			<path d="M161.9,265.4c-0.3,0-0.5-0.3-0.6-0.5c-0.1,0.3-0.2,0.5-0.5,0.5c-0.4,0-0.6-0.4-0.6-0.8c0-0.4,0.2-0.8,0.6-0.8
				c0.3,0,0.5,0.2,0.5,0.5c0.1-0.3,0.3-0.5,0.6-0.5c0.4,0,0.6,0.4,0.6,0.8C162.4,265,162.2,265.4,161.9,265.4z M160.8,264.1
				c-0.2,0-0.4,0.2-0.4,0.5c0,0.3,0.1,0.5,0.4,0.5c0.3,0,0.4-0.3,0.4-0.5C161.1,264.4,161.1,264.1,160.8,264.1z M161.8,264.1
				c-0.3,0-0.4,0.4-0.4,0.5c0,0.1,0.1,0.5,0.4,0.5c0.2,0,0.4-0.2,0.4-0.5C162.2,264.3,162.1,264.1,161.8,264.1z"/>
		</g>
		<g>
			<defs>
				<polygon id="SVGID_55_" points="17.4,201.2 18,201.2 18,275.3 17.4,275.3 17.4,201.2 				"/>
			</defs>
			<use xlink:href="#SVGID_55_"  style="overflow:visible;fill-rule:evenodd;clip-rule:evenodd;"/>
			<clipPath id="SVGID_56_">
				<use xlink:href="#SVGID_55_"  style="overflow:visible;"/>
			</clipPath>
		</g>
	</g>
</g>
</svg>
